<svg style="enable-background:new 0 0 100 100;" version="1.1" viewBox="0 0 100 125" x="0px" xmlns="http://www.w3.org/2000/svg" y="0px"
    xml:space="preserve"><path d="M48.79,60.53h-6.09c-7.04,0-12.77,5.73-12.77,12.77v8.31c0,2.46,2,4.46,4.46,4.46h22.72c2.46,0,4.46-2,4.46-4.46V73.3  C61.57,66.26,55.84,60.53,48.79,60.53z M58.47,81.61c0,0.75-0.61,1.36-1.36,1.36h-4.32v-7.35c0-0.86-0.69-1.55-1.55-1.55  s-1.55,0.69-1.55,1.55v7.35H41.8v-7.35c0-0.86-0.69-1.55-1.55-1.55c-0.86,0-1.55,0.69-1.55,1.55v7.35h-4.32  c-0.75,0-1.36-0.61-1.36-1.36V73.3c0-5.34,4.34-9.68,9.68-9.68h6.09c5.34,0,9.68,4.34,9.68,9.68V81.61z M36.06,49.86  c0,5.34,4.35,9.69,9.69,9.69c5.34,0,9.69-4.35,9.69-9.69c0-5.34-4.35-9.69-9.69-9.69C40.41,40.17,36.06,44.52,36.06,49.86z   M52.34,49.86c0,3.64-2.96,6.6-6.6,6.6c-3.63,0-6.59-2.96-6.59-6.6c0-3.63,2.96-6.59,6.59-6.59C49.38,43.27,52.34,46.23,52.34,49.86  z M16.78,63.87H11.6c-6.12,0-11.1,4.98-11.1,11.1v7.07c0,2.22,1.81,4.03,4.03,4.03h19.33c2.22,0,4.03-1.81,4.03-4.03v-7.07  C27.88,68.85,22.9,63.87,16.78,63.87z M24.79,82.04c0,0.51-0.42,0.93-0.93,0.93h-3.44v-6.03c0-0.86-0.69-1.55-1.55-1.55  c-0.86,0-1.55,0.69-1.55,1.55v6.03h-6.25v-6.03c0-0.86-0.69-1.55-1.55-1.55c-0.86,0-1.55,0.69-1.55,1.55v6.03H4.53  c-0.51,0-0.93-0.42-0.93-0.93v-7.07c0-4.41,3.59-8,8-8h5.18c4.41,0,8,3.59,8,8V82.04z M14.19,63.5c4.67,0,8.48-3.8,8.48-8.48  c0-4.67-3.8-8.48-8.48-8.48c-4.68,0-8.48,3.8-8.48,8.48C5.71,59.7,9.52,63.5,14.19,63.5z M14.19,49.64c2.97,0,5.38,2.41,5.38,5.38  c0,2.97-2.41,5.38-5.38,5.38c-2.97,0-5.38-2.42-5.38-5.38C8.81,52.06,11.23,49.64,14.19,49.64z M85.05,57.19h-7  c-7.96,0-14.44,6.48-14.44,14.44v9.55c0,2.7,2.19,4.89,4.89,4.89h26.1c2.7,0,4.89-2.19,4.89-4.89v-9.55  C99.5,63.67,93.02,57.19,85.05,57.19z M96.4,81.18c0,0.99-0.81,1.79-1.79,1.79h-5.19v-8.68c0-0.86-0.69-1.55-1.55-1.55  c-0.86,0-1.55,0.69-1.55,1.55v8.68h-9.53v-8.68c0-0.86-0.69-1.55-1.55-1.55c-0.86,0-1.55,0.69-1.55,1.55v8.68h-5.19  c-0.99,0-1.79-0.81-1.79-1.79v-9.55c0-6.26,5.09-11.35,11.34-11.35h7c6.26,0,11.35,5.09,11.35,11.35V81.18z M70.65,44.7  c0,6.01,4.89,10.9,10.9,10.9s10.9-4.89,10.9-10.9c0-6.01-4.89-10.9-10.9-10.9S70.65,38.69,70.65,44.7z M81.56,36.89  c4.31,0,7.81,3.5,7.81,7.81c0,4.31-3.5,7.81-7.81,7.81s-7.81-3.5-7.81-7.81C73.75,40.39,77.25,36.89,81.56,36.89z M5.76,37.29  c-0.2-0.83,0.31-1.67,1.14-1.87l62.51-15.01l-6.18-3.59c-0.74-0.43-0.99-1.38-0.56-2.12c0.43-0.74,1.38-0.99,2.12-0.56l9.53,5.54  c0.74,0.43,0.99,1.38,0.56,2.12l-5.54,9.53c-0.29,0.49-0.81,0.77-1.34,0.77c-0.26,0-0.53-0.07-0.78-0.21  c-0.74-0.43-0.99-1.38-0.56-2.12l3.72-6.4L7.62,38.43c-0.12,0.03-0.24,0.04-0.36,0.04C6.56,38.47,5.93,38,5.76,37.29z"/></svg>