<svg baseProfile="tiny" version="1.2" viewBox="0 0 100 125" x="0px" xmlns="http://www.w3.org/2000/svg" y="0px" xml:space="preserve"><path d="M83.3510742,11.0904541H16.6489258C8.8471069,11.0904541,2.5,17.4375,2.5,25.2393799v49.5212402  c0,7.8018799,6.3471069,14.1489258,14.1489258,14.1489258h66.7021484C91.1529541,88.9095459,97.5,82.5625,97.5,74.7606201  V25.2393799C97.5,17.4375,91.1529541,11.0904541,83.3510742,11.0904541z M93.4574585,74.7606201  c0,5.5728149-4.5335693,10.1063843-10.1063843,10.1063843H16.6489258c-5.5728149,0-10.1063843-4.5335693-10.1063843-10.1063843  V25.2393799c0-5.5728149,4.5335693-10.1063843,10.1063843-10.1063843h66.7021484  c5.5728149,0,10.1063843,4.5335693,10.1063843,10.1063843V74.7606201z"/>
    <path
        d="M80.343811,51.5613403c-3.782959-3.782959-9.9464722-3.7844238-13.7452393,0.0015259l-4.0786133,4.0889282  c-2.2166748,2.2088013-5.8234863,2.2088013-8.038208,0.0029297L40.2114258,41.3740234  c-1.8337402-1.8337402-4.2739868-2.8433838-6.8716431-2.8433838s-5.0383911,1.0096436-6.8716431,2.8433838L13.1985474,54.6436157  c-0.7895508,0.7890625-0.7895508,2.0691528,0,2.8582153c0.7885742,0.7895508,2.0696411,0.7895508,2.8582153,0L29.326355,44.2322388  c1.0703125-1.0698242,2.4954834-1.6590576,4.0134277-1.6590576s2.9431152,0.5892334,4.0124512,1.6585693l14.2733154,14.2832031  c3.789856,3.7775269,9.9573364,3.7765503,13.7521362-0.0039673l4.0791016-4.0889282  c2.2181396-2.2108154,5.8200684-2.2103271,8.0283203-0.0025024l6.4581299,6.4576416  c0.3947754,0.3947754,0.9119263,0.5921631,1.4291382,0.5921631c0.5171509,0,1.03479-0.1973877,1.4290771-0.5921631  c0.7895508-0.7890625,0.7895508-2.0691528,0-2.8582153L80.343811,51.5613403z" />
    <path
        d="M60.9487915,40.0288086c4.9223633,0,8.9269409-4.0045166,8.9269409-8.9269409  s-4.0045776-8.9274902-8.9269409-8.9274902c-4.9224243,0-8.9274902,4.0050659-8.9274902,8.9274902  S56.0263672,40.0288086,60.9487915,40.0288086z M60.9487915,26.2169189c2.6933594,0,4.8843994,2.1915283,4.8843994,4.8849487  c0,2.6933594-2.19104,4.8843994-4.8843994,4.8843994c-2.6934204,0-4.8849487-2.19104-4.8849487-4.8843994  C56.0638428,28.4084473,58.2553711,26.2169189,60.9487915,26.2169189z" /></svg>