<svg xmlns="http://www.w3.org/2000/svg" version="1.1" viewBox="-5.0 -10.0 110.0 135.0">
 <path d="m27.207 93.746c-1.2383 0-2.4648-0.37891-3.5312-1.1289-2.0391-1.4297-3.0547-3.8789-2.6484-6.3828l3.8633-23.789-16.344-16.812c-1.707-1.7578-2.2773-4.3047-1.4922-6.6562 0.76562-2.2773 2.6797-3.9141 5-4.2695l22.461-3.4453 10.07-21.367c1.0508-2.2422 3.2148-3.6445 5.6484-3.6445 2.4297 0 4.5977 1.3984 5.6484 3.6484l10.07 21.355 22.461 3.4453c2.3203 0.35547 4.2344 1.9922 5 4.2695 0.78906 2.3477 0.21484 4.8984-1.4922 6.6562l-16.344 16.82 3.8633 23.789c0.40625 2.5039-0.60547 4.9453-2.6445 6.3828-1.9453 1.3672-4.4375 1.5-6.5156 0.35156l-20.039-11.121-20.043 11.121c-0.9375 0.52344-1.9609 0.77734-2.9844 0.77734zm-14.176-52.473 17.441 17.945c0.6875 0.71094 1 1.7031 0.84375 2.6797l-4.1172 25.34 20.055-10.887c1.8672-1.0391 4.0938-1.0391 5.9609 0l20.094 11.148-4.1562-25.602c-0.16016-0.97656 0.15234-1.9688 0.84375-2.6797l17.441-17.945v-0.41016l-24.078-3.6797c-1.0273-0.15625-1.9102-0.81641-2.3516-1.7578l-10.781-22.871-10.758 22.871c-0.44531 0.94141-1.3242 1.6016-2.3516 1.7578l-24.102 3.6953 0.023437 0.39453zm37.148 40.543z"/>
</svg>