<svg version="1.1" viewBox="-5.0 -10.0 110.0 135.0" xmlns="http://www.w3.org/2000/svg">
    <g>
        <path
            d="m82.227 86.523v-10.875c1.8281-0.70703 3.125-2.4805 3.125-4.5547v-8.5781c0-3.1328-2.5469-5.6797-5.6797-5.6797h-3.6953v-7.1641c0.96094-0.89062 1.5625-2.1641 1.5625-3.5742v-8.6719c0-3.0781-2.5078-5.5859-5.5859-5.5859l-6.9141-0.003906v-6.8359h-1.9531v6.8359h-12.109v-6.8359h-1.9531v6.8359h-12.109v-6.8359h-1.9531v6.8359h-6.9141c-3.0781 0-5.5859 2.5078-5.5859 5.5859v7.1094c0 1.4102 0.60156 2.6836 1.5625 3.5742v8.7305h-3.6953c-3.1328 0-5.6797 2.5469-5.6797 5.6797v13.266c0 2.0742 1.2969 3.8477 3.125 4.5547v6.1875h-5.2734v1.9531h75v-1.9531zm-57.812-49.102c0-2.0039 1.6289-3.6328 3.6328-3.6328h43.906c2.0039 0 3.6328 1.6289 3.6328 3.6328v8.6719c0 0.95703-0.46094 1.8086-1.1719 2.3438h-0.39062v0.24609c-0.40625 0.21875-0.875 0.33984-1.3672 0.33984-1.6172 0-2.9297-1.3125-2.9297-2.9297v-3.125c0-2.6914-2.1914-4.8828-4.8828-4.8828s-4.8828 2.1914-4.8828 4.8828v1.5625c0 1.6172-1.3125 2.9297-2.9297 2.9297-1.6133 0-2.9297-1.3125-2.9297-2.9297v-2.3438c0-2.2617-1.8398-4.1016-4.1016-4.1016s-4.1016 1.8398-4.1016 4.1016v3.9062c0 1.6172-1.3125 2.9297-2.9297 2.9297s-2.9297-1.3125-2.9297-2.9297v-3.125c0-2.6914-2.1914-4.8828-4.8828-4.8828s-4.8828 2.1914-4.8828 4.8828v1.5625c0 1.6172-1.3125 2.9297-2.9297 2.9297-0.49219 0-0.96094-0.125-1.3672-0.33984v-0.24609h-0.39062c-0.71094-0.53516-1.1719-1.3867-1.1719-2.3438zm1.5625 11.797c0.43359 0.125 0.89063 0.19531 1.3672 0.19531 2.6914 0 4.8828-2.1914 4.8828-4.8828v-1.5625c0-1.6172 1.3125-2.9297 2.9297-2.9297s2.9297 1.3125 2.9297 2.9297v3.125c0 2.6914 2.1914 4.8828 4.8828 4.8828s4.8828-2.1914 4.8828-4.8828v-3.9062c0-1.1836 0.96484-2.1484 2.1484-2.1484s2.1484 0.96484 2.1484 2.1484v2.3438c0 2.6914 2.1914 4.8828 4.8828 4.8828s4.8828-2.1914 4.8828-4.8828v-1.5625c0-1.6172 1.3125-2.9297 2.9297-2.9297 1.6133 0 2.9297 1.3125 2.9297 2.9297v3.125c0 2.6914 2.1914 4.8828 4.8828 4.8828 0.47656 0 0.93359-0.070312 1.3672-0.19531v6.0547h-48.047zm-9.375 26.562v-13.266c0-2.0547 1.6719-3.7266 3.7266-3.7266h59.344c2.0547 0 3.7266 1.6719 3.7266 3.7266v8.5781c0 1.6172-1.3125 2.9297-2.9297 2.9297-1.6133 0-2.9297-1.3125-2.9297-2.9297v-3.125c0-2.6914-2.1914-4.8828-4.8828-4.8828s-4.8828 2.1914-4.8828 4.8828v9.375c0 1.6172-1.3125 2.9297-2.9297 2.9297-1.6133 0-2.9297-1.3125-2.9297-2.9297v-10.156c0-2.2617-1.8398-4.1016-4.1016-4.1016s-4.1016 1.8398-4.1016 4.1016v5.4688c0 1.6172-1.3125 2.9297-2.9297 2.9297-1.6133 0-2.9297-1.3125-2.9297-2.9297v-4.6875c0-2.6914-2.1914-4.8828-4.8828-4.8828s-4.8828 2.1914-4.8828 4.8828v1.5625c0 1.6172-1.3125 2.9297-2.9297 2.9297s-2.9297-1.3125-2.9297-2.9297v-1.5625c0-2.6914-2.1914-4.8828-4.8828-4.8828s-4.8828 2.1914-4.8828 4.8828v7.8125c0 1.6172-1.3125 2.9297-2.9297 2.9297s-2.9297-1.3125-2.9297-2.9297zm3.125 10.742v-5.8633c2.6016-0.10156 4.6875-2.25 4.6875-4.8789v-7.8125c0-1.6172 1.3125-2.9297 2.9297-2.9297s2.9297 1.3125 2.9297 2.9297v1.5625c0 2.6914 2.1914 4.8828 4.8828 4.8828s4.8828-2.1914 4.8828-4.8828v-1.5625c0-1.6172 1.3125-2.9297 2.9297-2.9297s2.9297 1.3125 2.9297 2.9297v4.6875c0 2.6914 2.1914 4.8828 4.8828 4.8828s4.8828-2.1914 4.8828-4.8828v-5.4688c0-1.1836 0.96484-2.1484 2.1484-2.1484s2.1484 0.96484 2.1484 2.1484v10.156c0 2.6914 2.1914 4.8828 4.8828 4.8828s4.8828-2.1914 4.8828-4.8828v-9.375c0-1.6172 1.3125-2.9297 2.9297-2.9297 1.6133 0 2.9297 1.3125 2.9297 2.9297v3.125c0 2.625 2.0859 4.7734 4.6875 4.8789v10.551z" />
        <path
            d="m49.641 22.789c0.10938 0.042969 0.22656 0.0625 0.34375 0.0625 0.11328 0 0.23047-0.019531 0.33594-0.0625 3.0273-1.1172 3.7266-3.0742 3.7734-4.5195 0.10156-2.9219-2.3477-5.8477-4.1484-6.6641-0.26172-0.11719-0.55859-0.11719-0.82031 0.007812-0.25781 0.12109-0.45312 0.35156-0.52734 0.625-0.30469 1.1172-0.78516 1.75-1.293 2.4219-0.49219 0.65234-1.0039 1.3281-1.2852 2.3594-0.30859 1.1328-0.058593 2.375 0.70312 3.4922 0.69531 1.0195 1.7305 1.8281 2.918 2.2773zm-1.7305-5.25c0.18359-0.66797 0.52344-1.1211 0.96094-1.6953 0.36719-0.48828 0.80078-1.0586 1.1641-1.8398 1.0664 0.96094 2.1641 2.6914 2.1094 4.1992-0.039062 1.1406-0.76172 2.0195-2.1484 2.6172-1.457-0.69531-2.3945-2.1328-2.0859-3.2812z" />
        <path
            d="m35.578 22.789c0.10938 0.042969 0.22656 0.0625 0.34375 0.0625 0.11328 0 0.23047-0.019531 0.33594-0.0625 3.0273-1.1172 3.7266-3.0742 3.7734-4.5195 0.10156-2.9219-2.3477-5.8477-4.1484-6.6641-0.26172-0.11719-0.55859-0.11719-0.82031 0.007812-0.25781 0.12109-0.45312 0.35156-0.52734 0.625-0.30469 1.1172-0.78516 1.75-1.293 2.4219-0.49219 0.65234-1.0039 1.3281-1.2852 2.3594-0.30859 1.1328-0.058593 2.375 0.70312 3.4922 0.69531 1.0195 1.7305 1.8281 2.918 2.2773zm-1.7305-5.25c0.18359-0.66797 0.52344-1.1211 0.96094-1.6953 0.36719-0.48828 0.80078-1.0586 1.1641-1.8398 1.0664 0.96094 2.1641 2.6914 2.1094 4.1992-0.039062 1.1406-0.76172 2.0195-2.1484 2.6172-1.457-0.69531-2.3945-2.1328-2.0859-3.2812z" />
        <path
            d="m63.703 22.789c0.10938 0.042969 0.22656 0.0625 0.34375 0.0625 0.11328 0 0.23047-0.019531 0.33594-0.0625 3.0273-1.1172 3.7266-3.0742 3.7734-4.5195 0.10156-2.9219-2.3477-5.8477-4.1484-6.6641-0.26172-0.11719-0.55859-0.11719-0.82031 0.007812-0.25781 0.12109-0.45312 0.35156-0.52734 0.625-0.30469 1.1172-0.78516 1.75-1.293 2.4219-0.49219 0.65234-1.0039 1.3281-1.2852 2.3594-0.30859 1.1328-0.058593 2.375 0.70312 3.4922 0.69531 1.0195 1.7305 1.8281 2.918 2.2773zm-1.7305-5.25c0.18359-0.66797 0.52344-1.1211 0.96094-1.6953 0.36719-0.48828 0.80078-1.0586 1.1641-1.8398 1.0664 0.96094 2.1641 2.6914 2.1094 4.1992-0.039062 1.1406-0.76172 2.0195-2.1484 2.6172-1.457-0.69531-2.3984-2.1328-2.0859-3.2812z" />
    </g>
</svg>