<svg xmlns="http://www.w3.org/2000/svg" xmlns:xlink="http://www.w3.org/1999/xlink" version="1.1" x="0px" y="0px" viewBox="0 0 100 125" style="enable-background:new 0 0 100 100;" xml:space="preserve"><g><path d="M31.3,71H52c0.6,0,1-0.4,1-1V49.3c0-0.6-0.4-1-1-1h-7.6h-4.9h-8.2c-0.6,0-1,0.4-1,1V70C30.3,70.6,30.8,71,31.3,71z    M43.4,50.3v3.6l-0.8-0.6C42.4,53.1,42.2,53,42,53s-0.4,0.1-0.6,0.2l-0.8,0.6v-3.6H43.4z M32.3,50.3h6.2V56c0,0.4,0.2,0.7,0.6,0.9   c0.3,0.2,0.8,0.1,1.1-0.1l1.8-1.4l1.8,1.4c0.2,0.1,0.4,0.2,0.6,0.2c0.1,0,0.3,0,0.4-0.1c0.3-0.2,0.6-0.5,0.6-0.9v-5.6H51V69H32.3   V50.3z"/><path d="M65.1,23.7c-2-3.1-6.2-4-9.3-2c-3.1,2-4,6.2-2,9.3c1.3,2,3.5,3.1,5.7,3.1c1.3,0,2.5-0.3,3.7-1.1   C66.2,31,67.1,26.8,65.1,23.7z M62,31.3c-2.2,1.4-5.1,0.8-6.6-1.4c-1.4-2.2-0.8-5.1,1.4-6.6c0.8-0.5,1.7-0.8,2.6-0.8   c1.6,0,3.1,0.8,4,2.2C64.8,26.9,64.2,29.9,62,31.3z"/><path d="M60.5,26.2c-0.6-0.1-1.2,0-1.6,0.3c-0.1,0-0.2,0-0.3-0.1c0-0.1,0-0.2,0.1-0.3l1-0.6c0.5-0.3,0.6-0.9,0.3-1.4   c-0.3-0.5-0.9-0.6-1.4-0.3L58.4,24c-0.3-0.3-0.8-0.4-1.2-0.1c-0.5,0.3-0.6,0.9-0.3,1.4l0,0c-0.1,0.2-0.2,0.4-0.2,0.6   c-0.1,0.6,0,1.2,0.3,1.6c0.3,0.5,0.8,0.8,1.4,1c0.6,0.1,1.2,0,1.6-0.3c0.1,0,0.1,0,0.1,0c0,0,0.1,0,0.1,0.1c0,0.1,0,0.2-0.1,0.3   c0,0,0,0,0,0c0,0,0,0,0,0l-1,0.6c-0.5,0.3-0.6,0.9-0.3,1.4c0.2,0.3,0.5,0.5,0.8,0.5c0.2,0,0.4-0.1,0.5-0.2l0.2-0.1   c0.2,0.2,0.4,0.3,0.7,0.3c0.2,0,0.4-0.1,0.5-0.2c0.5-0.3,0.6-0.9,0.3-1.4l0,0c0.1-0.2,0.2-0.4,0.2-0.6c0.1-0.6,0-1.2-0.3-1.6   C61.6,26.6,61.1,26.3,60.5,26.2z"/><path d="M55.8,71.4L35.1,77c-0.2-0.8-0.6-1.5-1.2-2.1l-5.4-5.2c-1.6-1.5-3.8-2.2-6-1.8L10,70.5v-0.8c0-0.6-0.4-1-1-1H5   c-0.6,0-1,0.4-1,1v24.2c0,0.6,0.4,1,1,1h4c0.6,0,1-0.4,1-1v-1.2l18.5,2c0.2,0,0.5,0,0.7,0c1.1,0,2.1-0.3,3.1-0.8l26.7-14.3   c2-1.1,2.9-3.5,2.1-5.6C60.3,71.9,58,70.7,55.8,71.4z M8,92.9H6V70.7h2V92.9z M58.1,77.8L31.4,92.1c-0.8,0.4-1.7,0.6-2.7,0.5   l-18.8-2V72.6l13-2.7c1.5-0.3,3.1,0.1,4.2,1.2l5.4,5.2c0.6,0.6,0.8,1.3,0.8,2.1c-0.1,0.8-0.5,1.5-1.2,1.9c-0.9,0.6-2.1,0.5-2.9-0.1   l-3.9-2.9c-0.4-0.3-1.1-0.2-1.4,0.2C23.5,78,23.6,78.6,24,79l3.9,2.9c0.8,0.6,1.8,0.9,2.7,0.9c0.8,0,1.7-0.2,2.4-0.7   c1.1-0.7,1.8-1.8,2-3l21.2-5.8c1.2-0.3,2.5,0.3,2.9,1.5C59.7,75.9,59.2,77.2,58.1,77.8z"/><path d="M95,5.1h-4c-0.6,0-1,0.4-1,1v1.2l-18.6-2c-1.3-0.1-2.6,0.1-3.8,0.7L40.9,20.4c-1.5,0.8-2.4,2.3-2.4,3.9   c0,0.5,0.1,1.1,0.3,1.6c0.3,0.9,0.9,1.5,1.6,2l-0.4,0.2c-0.5,0.3-0.6,0.9-0.3,1.4l9.4,14.6c0.2,0.3,0.5,0.5,0.8,0.5   c0.2,0,0.4-0.1,0.5-0.2l21.3-13.8c1.2,1,2.7,1.5,4.2,1.5c0.4,0,0.9,0,1.3-0.1L90,29.5v0.8c0,0.6,0.4,1,1,1h4c0.6,0,1-0.4,1-1V6.1   C96,5.6,95.6,5.1,95,5.1z M50.4,42.3L42,29.4l24.8-16l2.5,3.9c-0.8,0-1.7,0.2-2.4,0.7c-1.2,0.8-2,2-2.1,3.4s0.3,2.8,1.3,3.7   l4.3,4.2L50.4,42.3z M77.1,30.1c-1.5,0.3-3.1-0.2-4.2-1.2l-5.3-5.2c-0.6-0.6-0.8-1.3-0.8-2.1c0.1-0.8,0.5-1.5,1.2-1.9   c0.9-0.6,2.1-0.5,2.9,0.1l0.2,0.2c0,0,0,0,0.1,0.1l3.6,2.7c0.4,0.3,1.1,0.2,1.4-0.2c0.3-0.4,0.2-1.1-0.2-1.4l-3.6-2.7l-4.5-7   c-0.1-0.2-0.4-0.4-0.6-0.4c-0.3-0.1-0.5,0-0.8,0.1L42.5,26.7c-0.8-0.2-1.4-0.7-1.7-1.5c-0.1-0.3-0.2-0.6-0.2-0.9   c0-0.9,0.5-1.7,1.3-2.2L68.6,7.9c0.8-0.4,1.7-0.6,2.7-0.5l18.8,2v18.1L77.1,30.1z M94,29.3h-2V7.1h2V29.3z"/></g></svg>