<svg xmlns="http://www.w3.org/2000/svg" version="1.1" viewBox="-5.0 -10.0 110.0 135.0">
 <g>
  <path d="m65.523 95.223h-30.941c-4.7266 0-8.5039-3.7305-8.9727-8.8711l-0.9375-10.277c-0.03125-0.32812 0.078125-0.65234 0.30078-0.89453 0.22266-0.24219 0.53516-0.38281 0.86328-0.38281h48.426c0.32812 0 0.64062 0.13672 0.86328 0.38281 0.22266 0.24219 0.33203 0.57031 0.30078 0.89453l-0.9375 10.277c-0.46484 5.1406-4.2344 8.8711-8.9648 8.8711zm-38.402-18.082 0.82031 9.0039c0.35547 3.9062 3.1484 6.7383 6.6367 6.7383h30.941c3.4883 0 6.2812-2.8359 6.6367-6.7383l0.82031-9.0039zm50.133-32.684h-54.398c-0.60547 0-1.1133-0.46094-1.168-1.0664l-1.6523-18.082c-0.03125-0.32812 0.078125-0.65234 0.30078-0.89453 0.22266-0.24219 0.53516-0.38281 0.86328-0.38281h57.703c0.32812 0 0.64062 0.13672 0.86328 0.38281 0.22266 0.24219 0.33203 0.56641 0.30078 0.89453l-1.6523 18.082c-0.050781 0.60547-0.55469 1.0664-1.1602 1.0664zm-53.332-2.3398h52.262l1.4375-15.742h-55.137z"/>
  <path d="m82.156 26.375h-64.203c-1.3945 0-2.5352-1.0859-2.5352-2.4258v-6.9688c0-1.3359 1.1367-2.4258 2.5352-2.4258h64.203c1.3945 0 2.5352 1.0859 2.5352 2.4258v6.9688c-0.003906 1.3359-1.1367 2.4258-2.5352 2.4258zm-64.203-9.4805c-0.12109 0-0.1875 0.070313-0.19141 0.089844v6.9648c0.007812 0.015625 0.070312 0.082031 0.19141 0.082031h64.203c0.12109 0 0.1875-0.070312 0.19141-0.089844v-6.9648c-0.007812-0.015624-0.070312-0.082031-0.19141-0.082031z"/>
  <path d="m75.016 16.895h-51.043c-0.64453 0-1.1719-0.52344-1.1719-1.1719 0-5.8711 4.7773-10.648 10.648-10.648h32.086c5.8711 0 10.648 4.7773 10.648 10.648 0.003906 0.64844-0.51953 1.1719-1.168 1.1719zm-49.789-2.3398h48.535c-0.57031-4.0273-4.0391-7.1367-8.2227-7.1367h-32.086c-4.1836 0-7.6562 3.1094-8.2266 7.1367z"/>
  <path d="m75.242 77.141h-51.23c-0.57812 0-1.0664-0.42188-1.1562-0.98828l-5.125-32.684c-0.054688-0.33594 0.042969-0.68359 0.26562-0.94141 0.22266-0.26172 0.54688-0.41016 0.89062-0.41016l62.332-0.003907c0.34766 0 0.67578 0.15625 0.89844 0.42188 0.22266 0.26562 0.31641 0.61719 0.25391 0.96094l-5.9766 32.684c-0.10156 0.55469-0.58594 0.96094-1.1523 0.96094zm-50.23-2.3438h49.254l5.5469-30.34h-59.559z"/>
  <path d="m45.281 72.387c-2.3242 0-4.3242-0.75391-5.7773-2.207-1.9727-1.9727-2.6523-4.9453-1.918-8.3711 0.69531-3.2422 2.5938-6.5469 5.3477-9.3008 2.7539-2.7539 6.0586-4.6562 9.3008-5.3477 3.4258-0.73438 6.3984-0.054687 8.3711 1.918 1.9727 1.9727 2.6523 4.9414 1.918 8.3711-0.69531 3.2422-2.5938 6.5469-5.3477 9.3008-2.7539 2.7539-6.0586 4.6562-9.3008 5.3477-0.89844 0.19141-1.7656 0.28906-2.5938 0.28906zm9.5312-23.172c-0.66016 0-1.3594 0.078125-2.0898 0.23438-2.8086 0.60156-5.6953 2.2734-8.1367 4.7148-2.4375 2.4375-4.1133 5.3281-4.7148 8.1367-0.5625 2.625-0.10547 4.832 1.2852 6.2266 1.3906 1.3906 3.6016 1.8477 6.2266 1.2852 2.8086-0.60156 5.6953-2.2773 8.1367-4.7148 2.4375-2.4375 4.1133-5.3281 4.7148-8.1367 0.5625-2.625 0.10547-4.832-1.2852-6.2266-1.0039-1.0039-2.4336-1.5195-4.1367-1.5195z"/>
  <path d="m40.332 70.523c-0.39453 0-0.78516-0.20313-1.0039-0.56641-0.33203-0.55469-0.15625-1.2734 0.39844-1.6094 0.52734-0.32031 1.0625-0.625 1.5742-0.92188 2.5156-1.4414 4.6875-2.6914 5.168-4.5977 0.58203-2.3203 1.5625-4.875 4.375-6.2148 2.875-1.3633 6.0469-3.293 7.7578-7.2695 0.25781-0.59375 0.94531-0.86719 1.5391-0.61328 0.59375 0.25781 0.86719 0.94531 0.61328 1.5391-2.0312 4.7188-5.8242 6.9961-8.9023 8.4609-1.9297 0.91797-2.6367 2.7852-3.1094 4.668-0.72266 2.875-3.418 4.4219-6.2734 6.0586-0.50391 0.28906-1.0273 0.58984-1.5312 0.89453-0.19141 0.11719-0.40234 0.17188-0.60547 0.17188z"/>
 </g>
</svg>