<svg data-name="Layer 1" viewBox="0 0 100 125" x="0px" xmlns="http://www.w3.org/2000/svg" y="0px">
    <title>Artboard 478</title>
    <path
        d="M82,46H78V38a4,4,0,0,0-4-4H6a4,4,0,0,0-4,4V60A38,38,0,0,0,73.5,77.9a4,4,0,0,0,.5.1h8a16,16,0,0,0,0-32ZM40,90A30,30,0,0,1,10,60V42H70V60A30,30,0,0,1,40,90ZM82,70H76.62A38,38,0,0,0,78,60V54h4a8,8,0,0,1,0,16Z" />
    <path
        d="M24.83,8.83a4,4,0,1,0-5.66-5.66L18,4.34a13.66,13.66,0,0,0,0,19.32l1.17,1.17a4,4,0,0,0,5.66-5.66L23.66,18a5.65,5.65,0,0,1,0-8Z" />
    <path
        d="M44.83,8.83a4,4,0,1,0-5.66-5.66L38,4.34a13.66,13.66,0,0,0,0,19.32l1.17,1.17a4,4,0,0,0,5.66-5.66L43.66,18a5.65,5.65,0,0,1,0-8Z" />
    <path
        d="M64.83,8.83a4,4,0,1,0-5.66-5.66L58,4.34a13.66,13.66,0,0,0,0,19.32l1.17,1.17a4,4,0,0,0,5.66-5.66L63.66,18a5.65,5.65,0,0,1,0-8Z" />
</svg>