<svg xmlns="http://www.w3.org/2000/svg" data-name="Layer 2" viewBox="0 0 700 875" x="0px" y="0px"><title>nounProject062019</title><path d="M166,152.09v16.34a9.38,9.38,0,0,1-9.39,9.38H150a16.93,16.93,0,0,0-15.25,9.59h0A68.74,68.74,0,0,0,128,217.22v2.93A16,16,0,0,0,141.69,236c24.45,3.5,84.85,9.66,206.82,9.66,125.26,0,187.2-6.5,211.19-9.93A14.36,14.36,0,0,0,572,221.5h0a79.68,79.68,0,0,0-9.42-37.57l-.41-.78a10.13,10.13,0,0,0-8.92-5.34h0a15.17,15.17,0,0,1-14.67-11.32l-4.18-15.94a8.86,8.86,0,0,0-8.57-6.61H360a119,119,0,0,1-22.83-2.21l-128.09-25.1a36.14,36.14,0,0,0-33.94,11.45h0A36.12,36.12,0,0,0,166,152.09Z"/><path d="M456.19,640.89l-.41-.91,13.18-5.9a2.58,2.58,0,0,0-.84-4.93l-80.52-6.71a437,437,0,0,0-73.78.12l-81.95,7.1a2.58,2.58,0,0,0-.83,4.93l12,5.39-.41.91-12-5.39a3.58,3.58,0,0,1,1.16-6.83l82-7.1a436.88,436.88,0,0,1,73.95-.12l80.51,6.71a3.58,3.58,0,0,1,1.17,6.84Z"/><path d="M394.49,381.27a78.59,78.59,0,0,0-110,22.2,77.86,77.86,0,0,0,22.64,107.78,79,79,0,0,0,85.31.12,80.17,80.17,0,0,0,21.9-20.66,76.24,76.24,0,0,0,14.54-43,80.18,80.18,0,0,0-1.22-15.45,78.66,78.66,0,0,0-33.19-51Z"/><path d="M543.6,304.48l-7.53-.7,5.57-65.12-4-.34-5.56,65.09c-113.83-10.22-232.1-10.21-360.66,0l-5.56-65.11-4,.34,5.57,65.09c-3.67.29-7.35.6-11,.91a6.76,6.76,0,0,0-8.52,7.1l20.45,238s3.57,3.09,18.4,6.77l9.48,57.72a47.23,47.23,0,0,0,33.91,37,463.94,463.94,0,0,0,123,17,439,439,0,0,0,119-16.47A47,47,0,0,0,506,613.38l8.12-57.06c14.34-3.6,17.86-6.6,17.86-6.6L552.1,311.58A6.77,6.77,0,0,0,543.6,304.48ZM531,307.33c-25.26,4.86-77.62,10.8-182.52,10.8-99.54,0-150.82-5.35-176.66-10l-.06-.68C299.82,297.23,417.63,297.2,531,307.33Zm-97.5,139.36a85.79,85.79,0,0,1-13.07,47.11,82.14,82.14,0,0,1-37.77,32.13,87.3,87.3,0,0,1-16.11,4.9,84.8,84.8,0,0,1-64.28-13.33A84.3,84.3,0,0,1,304,377.28a83.89,83.89,0,0,1,127.66,53.17A84.17,84.17,0,0,1,433.51,446.69ZM502,612.81a43,43,0,0,1-30.89,35.06c-78.11,21.92-158.83,21.76-239.92-.49a43.19,43.19,0,0,1-31-33.85L191,557.47c23.36,5.21,69.57,11.11,159,11.11,90.36,0,136.7-6,159.92-11.27Z"/></svg>