<svg xmlns="http://www.w3.org/2000/svg" version="1.1" x="0px" y="0px" viewBox="0 0 40 50" enable-background="new 0 0 40 40" xml:space="preserve"><path d="M18.616,23.473c-0.167-0.167-0.381-0.269-0.715-0.26c-0.266,0.024-0.505,0.164-0.656,0.381  c-0.613,0.882-0.992,1.602-1.224,2.131c-0.738-0.272-1.991-0.88-3.29-2.152c-1.282-1.308-1.892-2.563-2.165-3.303  c0.53-0.232,1.25-0.611,2.13-1.224c0.22-0.152,0.359-0.394,0.381-0.655c0.024-0.268-0.071-0.528-0.26-0.715L8.05,12.907  c-0.337-0.338-0.931-0.334-1.26-0.008c-0.015,0.015-1.517,1.48-2.393,3.487c-1.471,3.364,4.062,9.183,5.186,10.315  c0.007,0.007,0.015,0.014,0.022,0.021c0.956,0.947,5.654,5.422,9.022,5.422c0.465,0,0.895-0.085,1.276-0.252  c1.828-0.799,3.215-2.122,3.485-2.389c0.343-0.35,0.341-0.916-0.006-1.264L18.616,23.473z M19.504,30.977  c-0.255,0.111-0.549,0.168-0.876,0.168c-3.061,0-7.804-4.622-8.335-5.148l0,0c-0.003-0.003-0.006-0.006-0.01-0.009  c-2.323-2.343-5.972-6.905-4.969-9.2c0.682-1.561,1.814-2.798,2.103-3.099l4.606,4.606c-1.08,0.738-1.869,1.077-2.249,1.215  c-0.247,0.09-0.382,0.355-0.311,0.607c0.188,0.658,0.813,2.379,2.561,4.162c1.771,1.736,3.491,2.36,4.148,2.548  c0.253,0.069,0.518-0.064,0.607-0.311c0.138-0.38,0.477-1.169,1.216-2.249l4.607,4.606C22.241,29.221,21.041,30.305,19.504,30.977z"/><path d="M33.453,7.855H12.839c-1.321,0-2.396,1.075-2.396,2.396v3.636l1,1v-2.354l11.461,6.301c0.074,0.041,0.157,0.062,0.24,0.062  s0.166-0.021,0.241-0.062l11.462-6.301v12.646c0,0.77-0.626,1.396-1.396,1.396H23.132l0.959,0.959  c0.013,0.013,0.021,0.028,0.033,0.041h9.329c1.321,0,2.396-1.075,2.396-2.396V10.251C35.849,8.931,34.774,7.855,33.453,7.855z   M34.849,11.393l-11.703,6.433l-11.702-6.433v-1.142c0-0.77,0.626-1.396,1.396-1.396h20.614c0.77,0,1.396,0.626,1.396,1.396V11.393z  "/></svg>