<svg xmlns="http://www.w3.org/2000/svg" xmlns:xlink="http://www.w3.org/1999/xlink" version="1.1" x="0px" y="0px" viewBox="0 0 512 640" style="enable-background:new 0 0 512 512;" xml:space="preserve"><g><path d="M437,92h-92V71c0-23.2-19.3-42-42.5-42h-93C186.3,29,167,47.8,167,71v21H75c-6.6,0-12,5.4-12,12   s5.4,12,12,12h26v315c0,28.7,23.1,52,51.7,52h206.5c28.7,0,51.7-23.3,51.7-52V116h26c6.6,0,12-5.4,12-12S443.6,92,437,92z M191,71   c0-9.9,8.6-18,18.5-18h93c9.9,0,18.5,8.1,18.5,18v21H191V71z M387,431c0,15.4-12.3,28-27.7,28H152.7c-15.4,0-27.7-12.5-27.7-28V116   h262V431z"/><path d="M309,396.3c6.6,0,12-5.4,12-12V189.8c0-6.6-5.4-12-12-12s-12,5.4-12,12v194.5   C297,390.9,302.4,396.3,309,396.3z"/><path d="M203,396.3c6.6,0,12-5.4,12-12V189.8c0-6.6-5.4-12-12-12s-12,5.4-12,12v194.5   C191,390.9,196.4,396.3,203,396.3z"/></g></svg>