<svg version="1.1" viewBox="-5.0 -10.0 110.0 135.0" xmlns="http://www.w3.org/2000/svg">
    <g>
        <path
            d="m72.25 21.809c-2.1484-2.1484-5.6484-2.1484-7.8008 0l-5.4102 5.4102-20.77 20.762c-0.32031 0.32031-0.51953 0.73047-0.57031 1.1719l-1.5312 12.691c-0.070313 0.60938 0.14062 1.2188 0.57031 1.6484 0.37891 0.37891 0.89062 0.58984 1.4102 0.58984 0.078124 0 0.16016 0 0.23828-0.011719l12.691-1.5312c0.44141-0.050781 0.85938-0.25 1.1719-0.57031l26.18-26.18c2.1484-2.1484 2.1484-5.6484 0-7.8008zm-22.328 36.84-9.4688 1.1406 1.1406-9.4688 18.859-18.859 8.3281 8.3281zm25.688-25.688-4 4-8.3281-8.3281 4-4c0.58984-0.58984 1.5508-0.58984 2.1406 0l6.1797 6.1797c0.59766 0.59766 0.59766 1.5586 0.007813 2.1484z" />
        <path
            d="m77.57 46.801c-1.1016 0-2 0.89844-2 2v18.699c0 4.5781-3.7305 8.3086-8.3086 8.3086h-35c-4.5781 0-8.3086-3.7305-8.3086-8.3086v-35c0-4.5781 3.7305-8.3086 8.3086-8.3086h18.73c1.1016 0 2-0.89844 2-2 0-1.1016-0.89844-2-2-2h-18.73c-6.7891 0-12.309 5.5195-12.309 12.309v35c0 6.7891 5.5195 12.309 12.309 12.309h35c6.7891 0 12.309-5.5195 12.309-12.309v-18.699c0-1.1094-0.89844-2-2-2z" />
    </g>
</svg>
