<svg data-name="Layer 1" viewBox="0 0 100 125" x="0px" xmlns="http://www.w3.org/2000/svg" y="0px">
    <title>a</title>
    <path
        d="M90.379,39.194,82.26,32.259V20.272a4.07,4.07,0,0,0-4.065-4.066H63.67c-.022-.02-.043-.042-.066-.061L50.881,5.325a1.364,1.364,0,0,0-1.771,0L36.432,16.2l-.007.006H21.386a4.07,4.07,0,0,0-4.065,4.066V32.587l-7.76,6.654a1.36,1.36,0,0,0-.476,1.035c0,.033,0,.065,0,.1V91.294A3.709,3.709,0,0,0,12.8,95H87.21a3.709,3.709,0,0,0,3.705-3.7V40.276A1.358,1.358,0,0,0,90.379,39.194Zm-2.93,1.084-5.189,4.45V35.845ZM50,8.157l9.466,8.049H40.614ZM21.386,18.934H78.195a1.339,1.339,0,0,1,1.338,1.338V47.066L50,72.392,20.048,46.712V20.272A1.339,1.339,0,0,1,21.386,18.934ZM17.321,36.179v8.194l-4.778-4.1ZM87.21,92.272H12.8a.979.979,0,0,1-.978-.978V43.246l5.843,5.01a1.372,1.372,0,0,0,.295.253L38.872,66.445l-18.423,15.8a1.364,1.364,0,1,0,1.776,2.07L40.967,68.241l8.143,6.983a1.365,1.365,0,0,0,1.775,0l8.143-6.982L77.77,84.312a1.363,1.363,0,1,0,1.775-2.07l-18.422-15.8L88.188,43.237V91.294A.979.979,0,0,1,87.21,92.272ZM49.791,57.328a17.057,17.057,0,0,0,8.451-2.238,1.364,1.364,0,1,0-1.354-2.368,14.326,14.326,0,1,1,7.227-12.446c0,4.5-1.936,6.923-3.848,6.992-1.224.041-2.089-.906-2.213-2.423V40.726q.012-.224.012-.45c0-.15,0-.3-.012-.449V33.381a1.364,1.364,0,0,0-2.728,0v.75a8.276,8.276,0,1,0,.211,12.092,4.816,4.816,0,0,0,4.828,3.77c3.119-.112,6.477-3.2,6.477-9.717A17.052,17.052,0,1,0,49.791,57.328Zm0-11.5a5.549,5.549,0,1,1,5.535-5.905v.713A5.555,5.555,0,0,1,49.791,45.825Z" />
</svg>