<svg xmlns="http://www.w3.org/2000/svg" xmlns:xlink="http://www.w3.org/1999/xlink" version="1.1" x="0px" y="0px" viewBox="0 0 100 125" style="enable-background:new 0 0 100 100;" xml:space="preserve"><style type="text/css">
	.st0{fill:#FFFFFF;}
</style><g><g><path class="st0" d="M50,89.4L34.6,74l1.4-1.4c2.4-2.5,3.8-5.7,3.8-9.2c0-7.2-5.8-13-13-13c-3.4,0-6.7,1.3-9.1,3.8l-1.5,1.5    l-1.4-1.5c-9.4-10.1-9.1-25.6,0.6-35.3C24.9,9.4,40,9,50,17.6c4.6-4,10.4-6.1,16.6-6.1c6.8,0,13.2,2.6,18,7.5l0,0    c9.9,9.9,9.9,26,0,36L50,89.4z M40.2,74l9.8,9.8L81.7,52c8.3-8.4,8.3-21.9,0-30.3c-4-4-9.4-6.3-15.2-6.3s-11.1,2.2-15.2,6.3    L50,23.1l-1.4-1.4c-8.4-8.4-21.9-8.4-30.3,0c-7.7,7.7-8.4,19.8-1.8,28.3c3-2.3,6.6-3.5,10.3-3.5c9.4,0,17,7.6,17,17    C43.8,67.3,42.6,71,40.2,74z M28.9,60.3c0,1.1,0.9,2,2,2c1.1,0,2-0.9,2-2s-0.9-2-2-2C29.8,58.3,28.9,59.2,28.9,60.3z M20.9,60.3    c0,1.1,0.9,2,2,2s2-0.9,2-2s-0.9-2-2-2S20.9,59.2,20.9,60.3z M34.3,71.3c0.7-0.4,1.1-1.3,0.7-2c-1.5-3.1-4.6-5-8.1-5    c-3.5,0-6.6,1.9-8.1,5c-0.4,0.7-0.1,1.6,0.7,2c0.7,0.4,1.6,0.1,2-0.7c1-2.1,3.1-3.4,5.4-3.4c2.3,0,4.4,1.3,5.4,3.4    c0.3,0.5,0.8,0.8,1.3,0.8C33.8,71.5,34,71.5,34.3,71.3z M35.7,70 M18.2,70"/></g><g><path d="M50,89.4L34.6,74l1.4-1.4c2.4-2.5,3.8-5.7,3.8-9.2c0-7.2-5.8-13-13-13c-3.4,0-6.7,1.3-9.1,3.8l-1.5,1.5l-1.4-1.5    c-9.4-10.1-9.1-25.6,0.6-35.3C24.9,9.4,40,9,50,17.6c4.6-4,10.4-6.1,16.6-6.1c6.8,0,13.2,2.6,18,7.5l0,0c9.9,9.9,9.9,26,0,36    L50,89.4z M40.2,74l9.8,9.8L81.7,52c8.3-8.4,8.3-21.9,0-30.3c-4-4-9.4-6.3-15.2-6.3s-11.1,2.2-15.2,6.3L50,23.1l-1.4-1.4    c-8.4-8.4-21.9-8.4-30.3,0c-7.7,7.7-8.4,19.8-1.8,28.3c3-2.3,6.6-3.5,10.3-3.5c9.4,0,17,7.6,17,17C43.8,67.3,42.6,71,40.2,74z     M28.9,60.3c0,1.1,0.9,2,2,2c1.1,0,2-0.9,2-2s-0.9-2-2-2C29.8,58.3,28.9,59.2,28.9,60.3z M20.9,60.3c0,1.1,0.9,2,2,2s2-0.9,2-2    s-0.9-2-2-2S20.9,59.2,20.9,60.3z M34.3,71.3c0.7-0.4,1.1-1.3,0.7-2c-1.5-3.1-4.6-5-8.1-5c-3.5,0-6.6,1.9-8.1,5    c-0.4,0.7-0.1,1.6,0.7,2c0.7,0.4,1.6,0.1,2-0.7c1-2.1,3.1-3.4,5.4-3.4c2.3,0,4.4,1.3,5.4,3.4c0.3,0.5,0.8,0.8,1.3,0.8    C33.8,71.5,34,71.5,34.3,71.3z M35.7,70 M18.2,70"/></g></g></svg>