<svg xmlns="http://www.w3.org/2000/svg" version="1.1" x="0px" y="0px" viewBox="0 0 100 125" style="enable-background:new 0 0 100 100;" xml:space="preserve"><g><path d="M39.62,50c0,1.1,0.9,2,2,2h26.45l-8.85,8.85c-0.78,0.78-0.78,2.05,0,2.83c0.39,0.39,0.9,0.59,1.41,0.59s1.02-0.2,1.41-0.59   l12.27-12.27c0.38-0.38,0.59-0.88,0.59-1.41s-0.21-1.04-0.59-1.41L62.04,36.32c-0.78-0.78-2.05-0.78-2.83,0   c-0.78,0.78-0.78,2.05,0,2.83L68.07,48H41.62C40.51,48,39.62,48.9,39.62,50z"/><path d="M22.11,20.57v58.85c0,1.1,0.9,2,2,2h26.3c1.1,0,2-0.9,2-2V65.45c0-1.1-0.9-2-2-2s-2,0.9-2,2v11.98h-22.3V22.57h22.3v11.98   c0,1.1,0.9,2,2,2s2-0.9,2-2V20.57c0-1.1-0.9-2-2-2h-26.3C23,18.57,22.11,19.47,22.11,20.57z"/></g></svg>