<svg style="enable-background:new 0 0 100 100;" version="1.1" viewBox="0 0 100 125" x="0px" xmlns="http://www.w3.org/2000/svg" y="0px"
    xml:space="preserve"><g><path d="M66.6,12c-6-0.2-11.7,1.8-16.3,5.5c-9.6-8.2-24.1-8-33.5,0.9c-0.3,0.3-0.6,0.6-0.9,0.9C6,29.6,6,45.8,16,56.2l27.7,28.5   l1.8,1.9c1.2,1.3,2.9,2,4.6,2c0,0,0.1,0,0.1,0c1.7,0,3.4-0.7,4.6-1.9l29.2-30c10-10.4,10-26.6,0-36.9C79.5,14.9,73.3,12.2,66.6,12z    M79.7,52.5L50.6,82.4c-0.1,0.1-0.3,0.2-0.4,0.2c-0.1,0-0.3,0-0.4-0.2L20.3,52c-7.7-8-7.7-20.6,0-28.6c0.2-0.2,0.5-0.5,0.7-0.7   c3.7-3.5,8.4-5.2,13.1-5.2c5,0,10,2,13.7,5.9l2.4,2.6l2.2-2.3c0.2-0.2,0.3-0.3,0.5-0.5c3.7-3.5,8.5-5.4,13.6-5.2   c5.1,0.1,9.8,2.2,13.3,5.9l0,0C87.5,31.9,87.5,44.5,79.7,52.5z"/></g></svg>