<svg xmlns="http://www.w3.org/2000/svg" data-name="Layer 1" viewBox="0 0 100 125" x="0px" y="0px"><path d="M14.42,35.758A10.278,10.278,0,1,0,24.7,25.48,10.289,10.289,0,0,0,14.42,35.758Zm18.556,0A8.278,8.278,0,1,1,24.7,27.48,8.287,8.287,0,0,1,32.976,35.758Z"/><path d="M75.3,46.035A10.278,10.278,0,1,0,65.026,35.758,10.289,10.289,0,0,0,75.3,46.035Zm0-18.555a8.278,8.278,0,1,1-8.278,8.278A8.287,8.287,0,0,1,75.3,27.48Z"/><path d="M85.639,50.22H61.562a8.908,8.908,0,0,0-7.6,4.3L47.2,65.8a5.681,5.681,0,0,0,.594,6.707,3.761,3.761,0,0,1-3.209-1.911l0-.01c-.01-.02-.02-.039-.031-.058l-4.73-8.3a1,1,0,0,0-1.869.5v9.349H17.967V63.8a1,1,0,0,0-2,0v8.274H7.5V59.081a6.867,6.867,0,0,1,6.86-6.859h24.08a6.891,6.891,0,0,1,5.883,3.335l2.49,4.14a1,1,0,1,0,1.714-1.031l-2.489-4.139a8.9,8.9,0,0,0-7.6-4.3H14.359A8.87,8.87,0,0,0,5.5,59.081v13.99a1,1,0,0,0,1,1H16.947c.007,0,.013,0,.02,0s.012,0,.019,0H38.949a1,1,0,0,0,1-1V66.5l2.835,4.974c.01.021.021.042.032.061s.038.075.044.085A5.72,5.72,0,0,0,50,74.1a5.678,5.678,0,0,0,2.129.421,5.841,5.841,0,0,0,1.472-.19,5.713,5.713,0,0,0,3.542-2.72L60.054,66.5v6.57a1,1,0,0,0,1,1H83c.012,0,.022.007.034.007s.022-.006.034-.007H93.5a1,1,0,0,0,1-1V59.082A8.872,8.872,0,0,0,85.639,50.22ZM92.5,72.068H84.035V63.8a1,1,0,0,0-2,0v8.271H62.054V62.724a1,1,0,0,0-1.869-.495L55.4,70.621a3.759,3.759,0,1,1-6.489-3.794l6.764-11.274a6.9,6.9,0,0,1,5.885-3.332H85.639A6.87,6.87,0,0,1,92.5,59.082Z"/></svg>