<svg viewBox="0 0 52 65" x="0px" xmlns="http://www.w3.org/2000/svg" y="0px">
    <title>medical</title>
    <path
        d="M46.5,2h-6a1.5,1.5,0,0,0,0,3h2.42l-6.31,6.31a11.49,11.49,0,0,0-17.23,1.25,13.79,13.79,0,0,1,2.87,1.23A8.5,8.5,0,1,1,28.76,28H28.5a8.55,8.55,0,0,1-4.58-1.34A8.84,8.84,0,0,1,22,25a8.51,8.51,0,0,1-1.84-4A6.5,6.5,0,0,0,17,19.18c0,.11,0,.21,0,.32a11.5,11.5,0,0,0,4.29,9,11.62,11.62,0,0,0,4.47,2.22,11.74,11.74,0,0,0,2.07.31l.67,0A11.51,11.51,0,0,0,40,19.5a11.39,11.39,0,0,0-1.58-5.79L45,7.12V9.54a1.5,1.5,0,0,0,3,0v-6A1.5,1.5,0,0,0,46.5,2Z" />
    <path
        d="M15.5,34a8.5,8.5,0,0,1-.26-17h.26a8.55,8.55,0,0,1,4.58,1.34,8.84,8.84,0,0,1,2,1.71,8.51,8.51,0,0,1,1.84,4A6.5,6.5,0,0,0,27,25.82c0-.11,0-.21,0-.32a11.5,11.5,0,0,0-4.29-8.95,11.62,11.62,0,0,0-4.47-2.22A11.74,11.74,0,0,0,16.17,14l-.67,0A11.49,11.49,0,0,0,14,36.89V40H11.5a1.5,1.5,0,0,0,0,3H14v5.5a1.5,1.5,0,0,0,3,0V43h2.5a1.5,1.5,0,0,0,0-3H17V36.9a11.49,11.49,0,0,0,7.66-4.46,13.79,13.79,0,0,1-2.87-1.23A8.5,8.5,0,0,1,15.5,34Z" />
</svg>