<svg xmlns="http://www.w3.org/2000/svg" version="1.1" x="0px" y="0px" viewBox="0 0 100 125" style="enable-background:new 0 0 100 100;" xml:space="preserve"><g><path d="M51.103344,73.8530807c2.2609444,1.1452484,4.3679123-1.2158661,4.2199821-3.6283722   c-0.0051727-0.2607574-0.2226334-0.4681244-0.4821625-0.4617691c-0.2607079,0.0055313-0.4675102,0.2215576-0.4617691,0.4822617   c0.1004791,1.6949539-1.2117653,3.5237961-2.8063354,2.7885056c-0.6496658-0.3722534-1.0032196-1.2634125-0.995636-2.5093536   c0.0017433-0.2617264-0.2105942-0.4752426-0.4723244-0.47509c-0.2593765,0-0.4705849,0.209465-0.4721222,0.4693527   C49.6198578,72.6790771,50.5487289,73.5351868,51.103344,73.8530807z"/><path d="M76.9824677,54.2289658c6.4024734-6.6060524,3.5942459-18.571804-5.7631607-23.5607891   c-0.0165558-6.2934399-3.1161346-16.4507465-10.0554962-18.7061539   C49.341732,8.2722139,38.7575989,9.7917213,29.7056293,16.4783726c-6.2984085,4.6509075-3.4503632,18.8574657-2.9592857,21.0716763   c-3.7127094,3.3852921-5.9898949,6.9993668-6.7643299,10.7330856c-1.1439724,5.6928635-0.0729141,9.7601013,4.4787941,11.4110374   c-1.9042149,3.3911819,1.8656292,21.2823753,7.5492668,16.171032c2.2469025,4.8035965,8.4317665,14.3548431,19.4262238,14.130928   c12.5709953-0.1497726,19.9554787-7.0442505,22.3644524-19.008522   C79.7636414,75.2545319,80.6850281,55.719883,76.9824677,54.2289658z M30.2659855,17.2381516   c9.0526333-6.7842112,19.9220676-7.7890682,30.6021709-4.3779526c8.0151901,3.0641212,9.2051773,14.1561394,9.3814926,17.2643776   c-6.368969-3.2536564-14.2798347-4.6569004-21.2920074-3.8093987c-6.7369194,1.3349419-13.9605103,4.9231911-19.499651,8.9912987   c0,0,0,0-0.0021019,0c-0.6496658,0.4854431-1.2776566,0.9945107-1.895195,1.5174065   C26.9184589,33.5917473,24.874258,21.2216129,30.2659855,17.2381516z M29.1851387,75.548233   c-1.4229717-0.9696045-2.8795052-3.981308-3.7085609-7.6730652c-0.8337688-3.6832428-1.414465-10.9645309,2.8060799-8.5000153   c0.1848736,2.4466858,0.2213554,6.1303482,1.895195,11.7908783c0.3890114,1.2714539,0.8590317,2.5385513,1.3998642,3.7567749   C30.5472393,76.2345352,29.7244873,75.9155197,29.1851387,75.548233z M73.4166031,67.4784775   c-1.379982,13.1363678-9.0369034,21.685318-21.9929085,21.5732574   c-13.1889954-0.2190475-18.7335701-12.3484116-20.7993412-19.7927399   c-0.794775-4.2439651-0.3290596-8.5370102,0.0469875-12.7963448c0.7998486,0.5498009,1.6643105,0.2236595,1.5210953-0.3763046   c-0.2623463-1.0954971-0.7870388-3.8512115,0-2.1407318c0.7870407,1.7105255,2.6213608,2.1407318,2.6213608,2.1407318   s-1.1059532-0.3323364-1.6957207-4.4878616c-0.170166-1.1973114,0.1554604-2.3882217,0.4399452-3.2850647   c2.8159676-2.6551285,6.5990829-4.2583084,10.4066391-5.2289391c0.0042,0,0.0063019-0.0021019,0.0105019-0.0021019   c2.6593285-0.6724167,5.3908043-1.0776176,8.1276588-1.2740173c0.1531029,0.3034401,0.3418694,0.5819244,0.5574875,0.829567   c0.3551407,0.407814,1.4648323,0.8755798,1.9279861,1.114048c0.2182808,0.1200027,0.4332809-0.2068024,0.2304764-0.3572922   l-0.0027657-0.0009727c-0.5583572-0.4385071-0.972374-1.0358086-1.1736412-1.665081   c4.396553-0.123127,9.0467949,0.4677658,12.8304214,2.8255501c1.1197891,1.4806175,1.2336426,3.1036797,0.4857483,4.7447777   c0.7555771,0.2959099,1.7000275-0.0210075,2.1218796-0.7135582c1.8112106,1.3662491,1.3509827,5.4936905,1.1157913,6.6797333   c0.5918655-0.1825676,0.8213654-2.5326157,1.1004715-3.4329948C72.6635895,53.4323463,74.2541199,61.8670311,73.4166031,67.4784775   z M73.6853561,53.0137711c-0.0020981-0.0042-0.0041962-0.0084038-0.0041962-0.0126038   c-0.2259216-0.8810654-0.5188522-1.7393265-0.8898773-2.5667915c-0.2399597-0.5438042-0.5137329-1.0693703-0.8143539-1.5824814   c-0.0020981-0.0021019-0.0020981-0.0041504-0.0041962-0.0063019c-5.5257721-9.2669716-18.1007652-8.9596863-27.4141045-6.8776741   c-0.0042038,0-0.0084038,0.0021515-0.0126076,0.0021515c-0.1719055,0.042942-0.3474007,0.0827026-0.5183868,0.1237984   c-0.0042038,0.0020981-0.0063057,0.0020981-0.0105057,0.0042c-1.0136719,0.2502022-2.0172997,0.5417023-3.0033531,0.8814735   c-0.0020981,0-0.0020981,0.0021019-0.0042,0.0021019c-0.1112404,0.0356598-0.2203293,0.0734749-0.3294716,0.1133385   c-0.0063019,0.0042038-0.0147057,0.0063057-0.0210075,0.0084038c-0.0020981,0.0021019-0.0020981,0.0021019-0.0042,0.0021019   c-1.0744934,0.3843994-2.1283875,0.8263893-3.1439552,1.3452911h-0.0020981   c-5.4595184,2.6421165-9.406292,7.8807373-9.2891579,13.8267212c-1.7881546-0.8143463-2.7913742-0.0923843-3.2950573,0.5687599   c-0.9570522-0.2980614-1.9329586-0.8017464-2.7199974-1.6433525c-1.6895199-1.8091125-2.1260815-4.7453423-1.2991257-8.7266502   C23.7491417,35.7695313,44.5547829,26.480835,53.3795586,27.007679c5.9025841,0.1477737,11.9527855,1.4457226,17.1408348,4.3446484   c5.5868988,3.1817684,8.6133118,7.6290455,8.9952469,13.2222996c-0.0839233,5.3518639-1.9496613,8.021492-3.5762024,9.3332214   c-0.6023712-0.0168076-1.2509155,0.2308846-1.9350662,0.7408714   C73.9456024,54.2184639,73.8490143,53.6602097,73.6853561,53.0137711z M78.2270737,62.8926926   c-0.2448196,4.3086777-1.6163025,9.8125153-4.2143478,6.9952164c0.8546753-4.6544418,0.7689514-9.4356499,0.1049423-14.112175   C77.5091019,52.6959839,78.3963699,58.1656952,78.2270737,62.8926926z"/><path d="M58.3013649,76.7094269c0.1722679,5.714119-11.3964806,5.4697571-11.6489906-0.0375595   c-0.0299225-0.6207199-0.9616623-0.578598-0.943573,0.0371933c0.0391464,3.3419495,3.9075241,5.2187424,7.0259056,5.1250839   c3.1575317,0.0684509,6.7156029-1.7219543,6.5102844-5.1624832C59.2169151,76.0511017,58.2767715,76.0955734,58.3013649,76.7094269   z"/><path d="M44.0486069,68.3662643c3.3842163-0.499115,3.4466591-7.1840401,1.2633553-9.8054504   c-1.5679893-2.1432724-4.0237808-1.8242569-4.9907608,0.648571c-0.463829,1.1185799-0.6149483,2.5373535-0.4260521,3.9917984   C40.1029053,65.4490128,41.77948,68.7040787,44.0486069,68.3662643z M43.1167526,62.1119194   c0.0016823-0.4888344,0.40131-0.4888268,0.4029732,0.0000191C43.51828,62.6037483,43.1181641,62.6037331,43.1167526,62.1119194z    M41.1942863,59.5703125c1.4048691-3.2546082,3.9051018-0.5380859,4.3927231,1.75877   c-2.09095-2.5577698-4.4518127-0.4368095-4.5480309,2.7913628C40.6323128,62.6581116,40.6690369,60.7926445,41.1942863,59.5703125z   "/><path d="M42.2330513,54.6112022c0.7159462-0.450882,1.5190582-0.7439346,2.3791008-0.7665825   c0.0958443,0.000267,0.183876-0.0640373,0.2092247-0.1613007c0.030117-0.1152763-0.0389175-0.2331543-0.1542053-0.2632828   c-1.959877-0.4608307-3.901989,0.8202286-5.0629616,2.3042755c-1.178894,1.491127-1.8576012,3.486702-1.5243301,5.3803558   c0.0176849,0.0977516,0.1016655,0.1733818,0.2049408,0.1766243c0.1196632,0.0038223,0.219532-0.0911713,0.2218285-0.2108536   C38.5877991,58.4751472,40.0599976,55.9942093,42.2330513,54.6112022z"/><path d="M61.5292702,56.1262398c-2.4499931-0.203331-3.8788528,2.8614845-4.1555748,5.2028427   c-0.7750587,5.3048973,3.4901199,8.5980568,6.0781326,3.5154076   C64.9918213,61.9943161,64.4285736,56.4358521,61.5292702,56.1262398z M60.4316025,60.7120438   c0.0029221-0.4879379,0.4036102-0.4895706,0.4050598,0.0000191C60.8354301,61.2046127,60.4342575,61.202961,60.4316025,60.7120438z    M63.2859383,62.061554c-0.0461807,0.3567924-0.1133423,0.7030945-0.2056885,1.0430946   c-0.0923462-3.2281952-2.4570122-5.3522415-4.5480309-2.7934647C59.9744225,55.2107887,63.8779221,56.4092026,63.2859383,62.061554   z"/><path d="M65.2997894,55.9170151c-0.8950882-1.6895523-2.441925-3.1903152-4.379528-3.5534286   c-0.348278-0.0501976-1.5591354-0.1857872-1.6292572,0.2421875c-0.0033417,0.12146,0.0948677,0.2217255,0.2161865,0.2215767   c1.7402306,0.0545349,3.2001152,1.1713219,4.2789383,2.4625969c1.089344,1.3500938,1.7756462,3.0098419,1.8265648,4.7632103   c0.001709,0.1002579,0.0741501,0.188942,0.1767044,0.2075043c0.1169052,0.0212021,0.2288589-0.0563622,0.250061-0.1732635   C66.2925034,58.6770515,65.9653549,57.180706,65.2997894,55.9170151z"/></g></svg>