<svg enable-background="new 0 0 100 100" version="1.1" viewBox="0 0 100 125" x="0px" xmlns="http://www.w3.org/2000/svg"
    y="0px" xml:space="preserve"><path d="M96.675,48.144L51.499,1.712c-0.77-0.79-2.158-0.79-2.928,0L3.396,48.143c-3.156,3.24-3.156,8.513-0.002,11.751  c1.544,1.588,3.603,2.466,5.796,2.466c1.464,0,2.853-0.423,4.084-1.155v35.872c0,1.129,0.915,2.042,2.042,2.042h24.506  c1.128,0,2.042-0.913,2.042-2.042V70.528h16.338v26.549c0,1.129,0.913,2.042,2.042,2.042h24.507c1.129,0,2.042-0.913,2.042-2.042  V61.205c1.232,0.732,2.62,1.155,4.084,1.155c2.194,0,4.252-0.878,5.796-2.466C99.83,56.656,99.83,51.383,96.675,48.144z   M62.288,95.035V68.486c0-1.129-0.913-2.042-2.042-2.042H39.824c-1.128,0-2.042,0.913-2.042,2.042v26.549H17.36V57.458  l32.675-33.582l32.676,33.582v37.577H62.288z M93.747,57.047c-1.539,1.584-4.198,1.584-5.737,0L51.499,19.523  c-0.385-0.395-0.913-0.618-1.464-0.618s-1.079,0.223-1.464,0.618l-36.51,37.523c-1.54,1.584-4.197,1.586-5.739,0  c-1.625-1.669-1.625-4.386,0.001-6.055L50.035,6.064l43.712,44.929C95.375,52.661,95.375,55.378,93.747,57.047z"/></svg>