<svg xmlns="http://www.w3.org/2000/svg" version="1.1" viewBox="-5.0 -10.0 110.0 135.0">
 <path d="m72.82 17.801h3.6289c9.0156 0 16.387 7.3711 16.387 16.387v46.297c0 9.0156-7.3711 16.387-16.387 16.387l-52.898 0.003906c-9.0156 0-16.387-7.3711-16.387-16.387l-0.003906-46.297c0-9.0156 7.3711-16.387 16.387-16.387h3.6406c1.1055-2.6172 2.7383-5.0859 4.9648-7.3125 9.8164-9.8164 25.875-9.8164 35.691 0 2.2461 2.2383 3.8789 4.707 4.9766 7.3086zm-22.82-5.125c-7.3281 0-13.266 5.9414-13.266 13.266 0 7.3281 5.9414 13.266 13.266 13.266 7.3281 0 13.266-5.9414 13.266-13.266 0-7.3281-5.9375-13.266-13.266-13.266zm7.1758 6.0898c-3.9609-3.9609-10.387-3.9609-14.352 0-3.9609 3.9609-3.9609 10.387 0 14.352 3.9609 3.9609 10.387 3.9609 14.352 0 3.9609-3.9648 3.9609-10.391 0-14.352zm-31.039 2.1562h-2.5898c-7.2969 0-13.27 5.9727-13.27 13.27v46.297c0 7.2969 5.9727 13.27 13.27 13.27h52.902c7.2969 0 13.27-5.9727 13.27-13.27v-46.297c0-7.2969-5.9727-13.27-13.27-13.27h-2.5781c2.1953 8.543-0.69922 17.852-5.8594 25.059l-11.523 16.105c3.5 3.5547 3.5039 9.2773-0.046875 12.828-3.5547 3.5547-9.3203 3.5547-12.879 0-3.5508-3.5508-3.543-9.2734-0.046875-12.828l-11.523-16.105c-5.2734-7.3633-8.0391-16.59-5.8555-25.059zm28.496 43.754-3.3633 4.6992c-0.64062 0.89844-1.9414 0.84766-2.5508-0.023438l-3.3477-4.6758c-3.1719 3.8516-0.45312 9.7852 4.6328 9.7852 5.082 0 7.8047-5.9336 4.6289-9.7852zm16.859-37.754c0-5.1133-1.7344-10.109-5.8516-14.227-8.6016-8.6016-22.684-8.6016-31.281 0-8.8867 8.8867-6.6953 21.898 0.16406 31.484l15.477 21.625 15.477-21.625c3.6797-5.1406 6.0156-11.285 6.0156-17.258zm-5.3164 46.715 4.4453 13.395 2.543-6.0938c0.12891-0.30859 0.38281-0.52734 0.67578-0.625l5.6641-2.2539zm3.2891 16.871c0.32031 0.96484 1.6641 1.0078 2.0547 0.078126h0.003907l3.4961-8.3789 8.0938-3.2227c0.94531-0.375 0.91797-1.7461-0.082031-2.0664l-18.23-6.0469c-0.85938-0.28516-1.6641 0.53906-1.3828 1.3828z" fill-rule="evenodd"/>
</svg>