<svg xmlns="http://www.w3.org/2000/svg" version="1.1" x="0px" y="0px" viewBox="0 0 100 125" style="enable-background:new 0 0 100 100;" xml:space="preserve"><g><path d="M44.0485878,68.3662643c3.3842125-0.499115,3.4466553-7.1840363,1.2633514-9.8054466   c-1.5679893-2.1432724-4.023777-1.8242531-4.990757,0.648571c-0.463829,1.1185799-0.6149483,2.5373497-0.4260559,3.9917984   C40.1028862,65.4490128,41.7794571,68.7040787,44.0485878,68.3662643z M43.1167336,62.1119232   c0.0016785-0.4888344,0.40131-0.4888268,0.4029694,0.0000191C43.518261,62.6037521,43.118145,62.6037331,43.1167336,62.1119232z    M41.1942673,59.5703163c1.4048653-3.2546082,3.905098-0.5380859,4.3927193,1.75877   c-2.09095-2.5577698-4.4518127-0.4368095-4.548027,2.7913589C40.6322937,62.6581154,40.6690178,60.7926483,41.1942673,59.5703163z"/><path d="M42.2330322,54.6112061c0.7159424-0.4508781,1.5190582-0.7439308,2.3791008-0.7665787   c0.0958405,0.000267,0.1838722-0.0640373,0.2092209-0.1613007c0.030117-0.1152763-0.0389137-0.2331543-0.1542053-0.2632828   c-1.959877-0.4608307-3.901989,0.8202248-5.0629578,2.3042755c-1.178894,1.4911232-1.8576012,3.4866982-1.5243301,5.380352   c0.0176849,0.0977516,0.1016655,0.1733818,0.204937,0.1766205c0.1196671,0.0038261,0.2195358-0.0911674,0.2218285-0.2108498   C38.5877762,58.4751511,40.0599747,55.9942131,42.2330322,54.6112061z"/><path d="M61.5292397,56.1262436c-2.4499931-0.203331-3.878849,2.8614845-4.155571,5.2028427   c-0.7750587,5.3048935,3.4901199,8.598053,6.0781288,3.5154037C64.9917908,61.9943199,64.4285431,56.4358559,61.5292397,56.1262436   z M60.4315758,60.7120476c0.0029182-0.4879379,0.4036064-0.4895706,0.4050598,0.0000191   C60.8353996,61.2046165,60.434227,61.2029648,60.4315758,60.7120476z M63.2859077,62.061554   c-0.0461769,0.3567963-0.1133423,0.7030983-0.2056885,1.0430946c-0.0923462-3.2281914-2.4570084-5.3522377-4.548027-2.7934608   C59.9743919,55.2107964,63.8778954,56.4092102,63.2859077,62.061554z"/><path d="M65.2997589,55.9170189c-0.8950882-1.6895485-2.4419212-3.1903114-4.379528-3.5534248   c-0.348278-0.0502014-1.5591354-0.1857872-1.6292534,0.2421837c-0.0033417,0.1214638,0.0948677,0.2217293,0.2161865,0.2215805   c1.7402267,0.0545311,3.2001152,1.1713219,4.2789383,2.4625969c1.0893402,1.35009,1.7756424,3.0098381,1.826561,4.7632065   c0.001709,0.1002579,0.0741501,0.188942,0.1767044,0.2075043c0.1169052,0.0212021,0.2288589-0.0563622,0.250061-0.1732635   C66.2924728,58.6770554,65.9653244,57.1807098,65.2997589,55.9170189z"/><path d="M51.1033134,73.8530502c2.2609406,1.1452637,4.3679276-1.2158356,4.2200089-3.628334   c-0.0051918-0.260788-0.2226753-0.468132-0.482193-0.4618073c-0.260704,0.0055389-0.4675064,0.2215652-0.4617691,0.4822693   c0.100502,1.6949844-1.2117653,3.5237961-2.8063316,2.7885208c-0.6496658-0.3722687-1.0032196-1.2634277-0.995636-2.5093689   c0.0017471-0.2617264-0.2105942-0.4752045-0.4723244-0.47509c-0.2593765,0-0.4705849,0.209465-0.4721222,0.4693527   C49.6198273,72.6790543,50.5486984,73.5351639,51.1033134,73.8530502z"/><path d="M57.84589,75.9428177c-3.7722206,0.4245148-12.2825394,1.0670319-15.2013817-0.5519791   c1.6034622,11.5222473,19.5080605,10.2566833,20.2552223-0.8751831   C61.8955612,75.3711166,59.497509,75.7013321,57.84589,75.9428177z M58.3978691,79.6656647   c-0.7933464,1.2157974-1.7049637,1.11586-2.8039513,1.3495102v-1.8804932c0-0.2602539-0.2119789-0.4722214-0.4722252-0.4722214   s-0.4722214,0.2119675-0.4722214,0.4722214v2.0022202c-1.0458374,0.1057587-2.0854759,0.1218109-3.129261,0.0419846v-2.1554413   c0-0.2602463-0.2119751-0.4722214-0.4722214-0.4722214c-0.2602577,0-0.4722252,0.2119751-0.4722252,0.4722214v2.0588913   c-0.7888184-0.1052094-1.5660591-0.2573166-2.3359299-0.4659195c-0.6493874-0.0782852-1.2118607-3.1688995-0.8311157-3.5238419   c1.3297653,0.2382507,3.8869934,0.1657944,5.5859337,0.1169205c2.0705528-0.1290894,4.1896439-0.2854004,6.2238426-0.6542053   C59.1282501,77.6865311,58.823925,78.9814682,58.3978691,79.6656647z"/><path d="M76.9824753,54.2289467c6.4025116-6.6060143,3.594223-18.571785-5.7632217-23.5607662   c-0.0165024-6.2934532-3.1160889-16.4507446-10.0554466-18.7061596   c-11.8221169-3.6898079-22.406208-2.1703014-31.4581985,4.5163727c-6.2984085,4.6508789-3.4503765,18.8574448-2.9592724,21.0716438   c-3.7127228,3.3853149-5.9898815,6.9993896-6.764328,10.7331085c-1.1439896,5.6928711-0.0729275,9.7600784,4.4787788,11.4110031   c-1.9041824,3.3912277,1.8656464,21.2824135,7.5492649,16.1710167c2.2469063,4.8036194,8.4317856,14.3548737,19.4262466,14.1309662   c12.5709724-0.1497803,19.9554482-7.0442581,22.3644371-19.0085068   C79.7636261,75.2545242,80.6850357,55.7198753,76.9824753,54.2289467z M78.2270432,62.8926735   c-0.2447815,4.3086815-1.616272,9.8125267-4.2143326,6.9951973c0.8546753-4.6544037,0.7689209-9.4356461,0.1049423-14.1121292   C77.5090485,52.6959648,78.3963547,58.165699,78.2270432,62.8926735z M30.265976,17.2381477   c9.0526085-6.7841825,19.9220619-7.7890778,30.60215-4.377944c8.0151978,3.0641251,9.2051926,14.1561136,9.3815002,17.264389   c-6.3689461-3.2536373-14.2798309-4.6568794-21.2919998-3.8093872c-6.736908,1.3349361-13.9605026,4.9231472-19.4996719,8.9912472   c0,0,0,0-0.0021,0c-0.6496582,0.4854927-1.2776375,0.9945221-1.895195,1.5174065   C26.9184361,33.5917625,24.8742371,21.2216206,30.265976,17.2381477z M22.2046089,57.2029114   c-1.689518-1.8091354-2.1260529-4.7453232-1.2991371-8.7266808c2.8436546-12.7066917,23.6492691-21.9954052,32.4740562-21.4685383   c5.9025917,0.1477566,11.9527702,1.4456882,17.1408501,4.3446159c5.5869064,3.1817989,8.6133347,7.6290913,8.9953003,13.2223034   c-0.0839386,5.35186-1.9497528,8.0214996-3.5762939,9.3332329c-0.6023483-0.0167961-1.2508698,0.2308578-1.9350586,0.7408562   c-0.0587769-0.4302444-0.1553192-0.9885101-0.3190231-1.6349335c-0.0020981-0.0042038-0.0041962-0.0083923-0.0041962-0.0125923   c-0.2258759-0.8810654-0.5188065-1.7393379-0.8898773-2.5667915c-0.2399216-0.5438385-0.5137024-1.0693703-0.8143234-1.5824814   c-0.0020981-0.0020981-0.0020981-0.0041885-0.0042038-0.0062866c-5.5257721-9.2670135-18.1007614-8.9597206-27.4141159-6.8776703   c-0.0041885,0-0.0083923,0.0021019-0.0125923,0.0021019c-0.1719055,0.0429726-0.3473969,0.0827179-0.5183907,0.1238327   c-0.0042,0.0020866-0.0063019,0.0020866-0.0104904,0.0041885c-1.0136604,0.2501945-2.0172806,0.5416985-3.0033379,0.881485   c-0.0021019,0-0.0021019,0.0021019-0.0042,0.0021019c-0.1112442,0.035675-0.2203712,0.073452-0.3295097,0.113327   c-0.0062904,0.0042-0.0146942,0.0063019-0.0209808,0.0084038c-0.0021019,0.0020866-0.0021019,0.0020866-0.0042038,0.0020866   c-1.0744858,0.3844299-2.1283875,0.8264122-3.1439514,1.3453178h-0.0021019   c-5.459507,2.6421242-9.406292,7.8807487-9.2891521,13.8266907c-1.7881546-0.8143234-2.7913589-0.0923462-3.2950687,0.5687599   C23.9675674,58.5482178,22.9916477,58.0445213,22.2046089,57.2029114z M29.1851044,75.5482483   c-1.4229584-0.969635-2.8795052-3.9813614-3.7085209-7.6731033c-0.8337879-3.6832275-1.4144993-10.9644966,2.8060532-8.5000114   c0.1848621,2.4467049,0.2213802,6.1303291,1.8951874,11.7908592c0.3890419,1.2714767,0.8590698,2.5385742,1.3998814,3.7568207   C30.5472164,76.2345505,29.7244892,75.9155273,29.1851044,75.5482483z M51.4236641,89.0517273   C38.2346687,88.832695,32.6900902,76.7033157,30.6243572,69.2589645   c-0.7948036-4.2439423-0.3290806-8.5369759,0.0469608-12.7962952c0.79986,0.5497856,1.6643333,0.2236481,1.5210953-0.3763008   c-0.2623463-1.0955544-0.7870388-3.8512383,0-2.1407471c0.7870369,1.7104988,2.6213608,2.1407471,2.6213608,2.1407471   s-1.1059265-0.3323555-1.695694-4.487915c-0.1701813-1.1973,0.1554604-2.3882065,0.4399147-3.2850266   c2.8159904-2.6551323,6.5990753-4.2583122,10.4066505-5.2289352c0.0041885,0,0.0062866-0.0021019,0.0104904-0.0021019   c2.6593323-0.6724319,5.3908043-1.0776176,8.1276436-1.2740288c0.153141,0.303463,0.3419075,0.5819244,0.5574837,0.8295403   c0.3551788,0.4078407,1.464859,0.875618,1.9280281,1.1140747c0.2182655,0.1200027,0.4332809-0.2068024,0.2304726-0.3572807   l-0.0027924-0.0009995c-0.5583687-0.4385185-0.9723434-1.0358047-1.1736145-1.6650658   c4.3965454-0.1231194,9.0467873,0.4677505,12.8303757,2.8255615c1.1197968,1.4805756,1.2336731,3.1036377,0.4857635,4.744751   c0.7555771,0.2959328,1.7000275-0.0209808,2.1218796-0.7135735c1.8112106,1.3662987,1.3510056,5.4937057,1.1158142,6.6797562   c0.5918427-0.1825905,0.8213425-2.532589,1.1004715-3.4329681c1.3669128,1.600174,2.9574432,10.0348892,2.1198959,15.6463051   C72.0366058,80.6148453,64.3796844,89.1637802,51.4236641,89.0517273z"/></g></svg>