<svg xmlns="http://www.w3.org/2000/svg" viewBox="0 0 64 80" x="0px" y="0px"><title>13-online payment</title><g data-name="13-online payment"><path d="M12,62a3,3,0,0,1-3-3V5a3,3,0,0,1,3-3H42a3,3,0,0,1,3,3V9a1,1,0,0,0,2,0V5a5,5,0,0,0-5-5H12A5,5,0,0,0,7,5V59a5,5,0,0,0,5,5,1,1,0,0,0,0-2Z"/><path d="M42,9a1,1,0,0,0-1-1H13a1,1,0,0,0,0,2H41A1,1,0,0,0,42,9Z"/><path d="M30,6a1,1,0,0,0,0-2H24a1,1,0,0,0,0,2Z"/><path d="M15,12a3,3,0,0,0-3,3v2a1,1,0,0,0,2,0V15a1,1,0,0,1,1-1h2a1,1,0,0,0,0-2Z"/><path d="M21,12a1,1,0,0,0,0,2h1a1,1,0,0,0,0-2Z"/><path d="M16,23.05a7,7,0,0,1,9.9,9.9,1,1,0,1,0,1.41,1.41,9,9,0,1,0-12.73,0A1,1,0,0,0,16,32.95,7,7,0,0,1,16,23.05Z"/><path d="M46,16v1a3,3,0,0,0,0,6h2a1,1,0,0,1,0,2H46a1,1,0,0,1-1-1,1,1,0,0,0-2,0,3,3,0,0,0,3,3v1a1,1,0,0,0,2,0V27a3,3,0,0,0,0-6H46a1,1,0,0,1,0-2h2a1,1,0,0,1,1,1,1,1,0,0,0,2,0,3,3,0,0,0-3-3V16a1,1,0,0,0-2,0Z"/><path d="M37,22A10,10,0,1,0,47,12,10,10,0,0,0,37,22Zm18,0a8,8,0,1,1-8-8A8,8,0,0,1,55,22Z"/><path d="M56.88,34.56a1,1,0,0,0-.14-.21l-.07-.08a1,1,0,0,0-.26-.18l0,0h0A1,1,0,0,0,56,34H51a1,1,0,0,0,0,2h2.59L47,42.59l-3.29-3.29a1,1,0,0,0-1.41,0L39,42.61A7,7,0,0,0,32,36H25V28.17A4.09,4.09,0,0,0,21.21,24a4,4,0,0,0-3,1.09A4,4,0,0,0,17,28V49a9,9,0,0,0,3.36,7H18a1,1,0,0,0-1,1v6a1,1,0,0,0,1,1H38a1,1,0,0,0,1-1V57a1,1,0,0,0-1-1H36.26A9.36,9.36,0,0,0,39,49V45.41l4-4,3.29,3.29a1,1,0,0,0,1.41,0L55,37.41V40a1,1,0,0,0,2,0V35a1,1,0,0,0-.07-.35ZM37,62H19V58H37Zm0-13c0,3.48-1.86,7-6,7H26a7,7,0,0,1-7-7V28a2,2,0,0,1,2-2h.11A2.12,2.12,0,0,1,23,28.17V37a1,1,0,0,0,1,1h8a5,5,0,0,1,5,5Z"/><path d="M46,47a1,1,0,0,0-1,1V59a3,3,0,0,1-3,3,1,1,0,0,0,0,2,5,5,0,0,0,5-5V48A1,1,0,0,0,46,47Z"/></g></svg>