<svg data-name="Layer 1" viewBox="0 0 128 160" x="0px" xmlns="http://www.w3.org/2000/svg" y="0px">
    <title>miscellaneous 438 final</title>
    <path d="M78,116a2,2,0,0,0,0,4H88a2,2,0,0,0,0-4Z" />
    <circle cx="83" cy="10" r="2" />
    <path d="M67,33H85a2,2,0,0,0,0-4H67a2,2,0,0,0,0,4Z" />
    <path d="M93,33h6a2,2,0,0,0,0-4H93a2,2,0,0,0,0,4Z" />
    <path d="M67,41H85a2,2,0,0,0,0-4H67a2,2,0,0,0,0,4Z" />
    <path d="M93,41h6a2,2,0,0,0,0-4H93a2,2,0,0,0,0,4Z" />
    <path d="M67,49H85a2,2,0,0,0,0-4H67a2,2,0,0,0,0,4Z" />
    <path d="M93,49h6a2,2,0,0,0,0-4H93a2,2,0,0,0,0,4Z" />
    <path d="M93,57h6a2,2,0,0,0,0-4H93a2,2,0,0,0,0,4Z" />
    <path d="M93,65h6a2,2,0,0,0,0-4H93a2,2,0,0,0,0,4Z" />
    <path d="M93,73h6a2,2,0,0,0,0-4H93a2,2,0,0,0,0,4Z" />
    <path
        d="M12,76h7.59668a.99906.99906,0,0,1,.94922.68555l11.251,33.94385A1.99987,1.99987,0,0,0,33.69531,112H62.9834a2.00021,2.00021,0,0,0,1.78809-1.10449l13.0166-26A2,2,0,0,0,76,82H26.52148l-2.17871-6.57373A4.99272,4.99272,0,0,0,19.59668,72H12a2,2,0,0,0,0,4ZM72.76172,86,61.748,108H35.13965l-1.98871-6H53a2,2,0,0,0,0-4H31.82513l-1.32587-4H50a2,2,0,0,0,0-4H29.17346l-1.32581-4Z" />
    <path
        d="M40,126a6,6,0,1,0-6-6A6.00656,6.00656,0,0,0,40,126Zm0-8a2,2,0,1,1-2,2A2.00229,2.00229,0,0,1,40,118Z" />
    <path
        d="M56,126a6,6,0,1,0-6-6A6.00656,6.00656,0,0,0,56,126Zm0-8a2,2,0,1,1-2,2A2.00229,2.00229,0,0,1,56,118Z" />
    <path
        d="M87,71a2.0001,2.0001,0,0,0-2-2H69.01373a18.89389,18.89389,0,0,1-1.88861,4H85A2.0001,2.0001,0,0,0,87,71Z" />
    <path d="M85,65a2,2,0,0,0,0-4H69.89252a18.66135,18.66135,0,0,1,0,4Z" />
    <path d="M85,53H67.12512a18.89389,18.89389,0,0,1,1.88861,4H85a2,2,0,0,0,0-4Z" />
    <path
        d="M51,78A15,15,0,1,0,36,63,15.01672,15.01672,0,0,0,51,78Zm0-26A11,11,0,1,1,40,63,11.01245,11.01245,0,0,1,51,52Z" />
    <path
        d="M47.89355,68.42773A1.99869,1.99869,0,0,0,49.29395,69l.03516-.00049a1.99961,1.99961,0,0,0,1.41406-.62109l5.70605-6a2.00007,2.00007,0,0,0-2.89844-2.75684L49.24414,64.1499l-.84375-.82764a1.99988,1.99988,0,1,0-2.80078,2.85547Z" />
    <path
        d="M75.20062,99H95a2.00025,2.00025,0,0,0,1.41406-.58594l12-12A2.00025,2.00025,0,0,0,109,85V23a6.00656,6.00656,0,0,0-6-6H63a6.00656,6.00656,0,0,0-6,6V44.98627a18.89389,18.89389,0,0,1,4,1.88861V23a2.00229,2.00229,0,0,1,2-2h40a2.00229,2.00229,0,0,1,2,2V83H97a4.00427,4.00427,0,0,0-4,4v8H77.20325ZM97,87h5.17151l-2.58557,2.58569L97,92.17139Z" />
    <path
        d="M52,44.05066V8a4.00427,4.00427,0,0,1,4-4h54a4.00427,4.00427,0,0,1,4,4V120a4.00427,4.00427,0,0,1-4,4H65.15924a10.04622,10.04622,0,0,1-3.18481,4H110a8.00917,8.00917,0,0,0,8-8V8a8.00917,8.00917,0,0,0-8-8H56a8.00917,8.00917,0,0,0-8,8V44.26056A18.96752,18.96752,0,0,1,51,44C51.33752,44,51.66675,44.0332,52,44.05066Z" />
</svg>