<svg style="" clip-rule="evenodd" fill-rule="evenodd" stroke-linejoin="round"
    stroke-miterlimit="2" version="1.1" viewBox="0 0 48 60" x="0px" xmlns="http://www.w3.org/2000/svg" y="0px"
    xml:space="preserve"><g transform="matrix(1,0,0,1,-336,-144)"><g><path d="M340.461,150.125C338.056,152.529 337.212,156.083 338.278,159.311C338.279,159.316 338.281,159.322 338.283,159.327C339.824,163.747 343.141,170.555 350.293,177.707C357.446,184.86 364.255,188.177 368.68,189.705C368.684,189.707 368.689,189.708 368.693,189.71C371.915,190.774 375.462,189.932 377.863,187.534C379.057,186.357 380.344,185.07 381.293,184.121C381.856,183.559 382.172,182.796 382.172,182C382.172,181.204 381.855,180.441 381.293,179.879C379.39,177.976 376.024,174.61 374.121,172.707C373.559,172.145 372.796,171.828 372,171.828C371.204,171.828 370.441,172.144 369.879,172.707L366.393,176.192C366.077,176.509 365.589,176.576 365.2,176.359C363.583,175.319 360.716,173.302 357.707,170.293C354.701,167.287 352.684,164.422 351.658,162.817C351.429,162.424 351.493,161.93 351.812,161.611C351.813,161.61 351.814,161.609 351.815,161.608C352.79,160.624 354.229,159.186 355.293,158.121C355.856,157.559 356.172,156.796 356.172,156C356.172,155.204 355.855,154.441 355.293,153.879C353.39,151.976 350.024,148.61 348.121,146.707C347.559,146.145 346.796,145.828 346,145.828C345.204,145.828 344.441,146.145 343.879,146.707L340.461,150.125ZM341.875,151.539L345.293,148.121C345.48,147.934 345.735,147.828 346,147.828C346.265,147.828 346.52,147.934 346.707,148.121L353.879,155.293C354.066,155.48 354.172,155.735 354.172,156C354.172,156.265 354.066,156.52 353.879,156.707C352.812,157.773 351.372,159.214 350.395,160.2C349.428,161.166 349.241,162.671 349.944,163.849C349.95,163.857 349.955,163.865 349.96,163.874C351.028,165.548 353.139,168.553 356.293,171.707C359.446,174.86 362.45,176.97 364.12,178.044C364.129,178.05 364.139,178.055 364.148,178.061C365.328,178.766 366.836,178.578 367.808,177.606C367.808,177.606 371.293,174.121 371.293,174.121C371.48,173.934 371.735,173.828 372,173.828C372.265,173.828 372.52,173.934 372.707,174.121L379.879,181.293C380.066,181.48 380.172,181.735 380.172,182C380.172,182.265 380.066,182.52 379.879,182.707C379.879,182.707 379.879,182.707 379.879,182.707C378.933,183.653 377.649,184.937 376.457,186.111C376.456,186.113 376.454,186.114 376.452,186.116C374.587,187.981 371.831,188.637 369.326,187.812C365.082,186.345 358.564,183.149 351.707,176.293C344.851,169.436 341.654,162.918 340.175,158.677C339.349,156.168 340.006,153.407 341.875,151.539Z"/></g></g></svg>