<svg xmlns="http://www.w3.org/2000/svg" version="1.1" x="0px" y="0px" viewBox="0 0 232 290" enable-background="new 0 0 232 232" xml:space="preserve"><g><path d="M179.3,60.3c0-0.1-0.1-0.3-0.1-0.4c-0.2-0.4-0.5-0.9-0.8-1.2l-43.1-43.1c-0.4-0.4-0.8-0.6-1.2-0.8   c-0.1-0.1-0.3-0.1-0.4-0.1c-0.4-0.1-0.7-0.2-1.1-0.2c-0.1,0-0.2-0.1-0.3-0.1H32.5c-7,0-12.6,5.7-12.6,12.6v185.4   c0,7,5.7,12.6,12.6,12.6h134.4c7,0,12.6-5.7,12.6-12.6V61.6c0-0.1,0-0.2-0.1-0.3C179.5,61,179.4,60.7,179.3,60.3z M165.2,57.4   h-24.5c-2.3,0-4.2-1.9-4.2-4.2V28.7l14.3,14.3L165.2,57.4z M166.9,216.6H32.5c-2.3,0-4.2-1.9-4.2-4.2V27c0-2.3,1.9-4.2,4.2-4.2   h95.5v30.4c0,7,5.7,12.6,12.6,12.6h30.4v146.5C171.1,214.7,169.3,216.6,166.9,216.6z"/><path d="M156.7,181.5c0.1-0.5,0.1-1,0.1-1.5c0-2.5-1-4.8-2.7-6.5c-2.1-2.1-5.1-3-8-2.6c-0.3-0.4-0.6-0.8-1-1.1   c-1.7-1.8-4.1-2.7-6.5-2.7c-3.1,0-5.8,1.5-7.5,3.9c-2.9-0.5-5.9,0.5-8,2.6c-2.2,2.2-3,5.2-2.6,8c-2.3,1.7-3.8,4.4-3.8,7.4   c0,3.1,1.5,5.8,3.9,7.5c-0.5,2.8,0.4,5.8,2.6,8c2.1,2.1,5.2,3.1,8,2.6c1.7,2.3,4.4,3.9,7.5,3.9c3.1,0,5.8-1.5,7.5-3.9   c2.9,0.5,5.9-0.5,8-2.6c2.2-2.2,3-5.2,2.6-8c0.4-0.3,0.8-0.6,1.1-1c1.8-1.7,2.7-4.1,2.7-6.5C160.5,185.9,159,183.2,156.7,181.5z    M151.9,189.5c-0.1,0.1-0.3,0.2-0.6,0.2h-0.6c-1.7,0-3.2,1-3.9,2.6c-0.7,1.6-0.3,3.4,0.9,4.6l0.5,0.5c0.3,0.3,0.3,0.8,0,1.1   c-0.3,0.4-0.6,0.5-1.3-0.2l-0.5-0.4c-1.2-1.1-3-1.4-4.5-0.7c-1.5,0.7-2.5,2.2-2.5,3.9v0.6c0,0.9-1.6,0.9-1.6,0V201   c0-1.7-1-3.2-2.6-3.9c-0.5-0.2-1.1-0.3-1.6-0.3c-1.1,0-2.2,0.4-3,1.2l-0.5,0.5c-0.3,0.3-0.6,0.5-1.1,0c-0.3-0.3-0.3-0.8,0-1.1   l0.5-0.5c1.2-1.2,1.6-3,0.9-4.6c-0.7-1.6-2.2-2.6-3.9-2.6h-0.6c-0.4,0-0.8-0.4-0.8-0.8c0-0.4,0.4-0.8,0.8-0.8h0.6   c1.7,0,3.2-1,3.9-2.5c0.7-1.5,0.4-3.3-0.8-4.5l-0.6-0.6c-0.3-0.3-0.3-0.8,0-1c0.4-0.4,0.8-0.4,1.2,0l0.5,0.5c1.2,1.2,3,1.6,4.6,0.9   c1.6-0.7,2.6-2.2,2.6-3.9v-0.7c0-0.6,0.6-1.3,1.4-0.5c0.1,0.1,0.2,0.3,0.2,0.5v0.7c0,1.7,1,3.2,2.6,3.9c1.6,0.7,3.4,0.3,4.6-0.9   l0.5-0.5c0.4-0.4,0.7-0.4,1.1,0c0.2,0.2,0.2,0.3,0.2,0.6c0,0.1,0,0.3-0.4,0.7l-0.5,0.5c-1.1,1.2-1.4,3-0.7,4.5   c0.7,1.5,2.2,2.5,3.9,2.5h0.6c0.4,0,0.8,0.3,0.8,0.8C152.1,189.1,152.1,189.3,151.9,189.5z"/><path d="M212.1,188.8l-0.3-152.8c0-3.1-1.5-5.7-3.7-7.5l0-10.6c0-6-4.9-10.9-10.9-10.9s-10.9,4.9-10.9,10.9l0,10.6   c-2.2,1.8-3.7,4.5-3.7,7.5l0.3,152.8c0,0.3,0.1,0.6,0.2,0.9c0,0.1,0,0.3,0,0.4l10.4,31.9c0.6,1.7,2.2,2.9,4,2.9s3.4-1.2,4-2.9   l10.4-31.9c0-0.1,0-0.3,0-0.4C212,189.4,212.1,189.1,212.1,188.8z M191.3,184.7l-0.2-128l12.4,0l0.2,128l-5.9,0L191.3,184.7z    M202.2,34.9c0.6,0,1.2,0.5,1.2,1.2l0,12.1l-12.4,0l0-12.1c0-0.7,0.5-1.2,1.2-1.2L202.2,34.9z M197.1,15.4c1.4,0,2.5,1.1,2.5,2.5   l0,8.6l-5,0l0-8.6C194.7,16.6,195.8,15.4,197.1,15.4z M197.5,207.2l-4.6-14.1l4.7,0l4.5,0L197.5,207.2z"/><path d="M45.8,139.7h107.8c2.3,0,4.2-1.9,4.2-4.2s-1.9-4.2-4.2-4.2H45.8c-2.3,0-4.2,1.9-4.2,4.2S43.5,139.7,45.8,139.7z"/><path d="M157.8,153.6c0-2.3-1.9-4.2-4.2-4.2H45.8c-2.3,0-4.2,1.9-4.2,4.2c0,2.3,1.9,4.2,4.2,4.2h107.8   C155.9,157.8,157.8,155.9,157.8,153.6z"/><path d="M45.8,103.6h107.8c2.3,0,4.2-1.9,4.2-4.2c0-2.3-1.9-4.2-4.2-4.2H45.8c-2.3,0-4.2,1.9-4.2,4.2   C41.6,101.7,43.5,103.6,45.8,103.6z"/><path d="M45.8,121.7h107.8c2.3,0,4.2-1.9,4.2-4.2s-1.9-4.2-4.2-4.2H45.8c-2.3,0-4.2,1.9-4.2,4.2S43.5,121.7,45.8,121.7z"/><path d="M56.4,85.5h86.7c2.3,0,4.2-1.9,4.2-4.2s-1.9-4.2-4.2-4.2H56.4c-2.3,0-4.2,1.9-4.2,4.2S54,85.5,56.4,85.5z"/></g></svg>