<svg version="1.1" viewBox="-5.0 -10.0 110.0 135.0" xmlns="http://www.w3.org/2000/svg">
    <g>
        <path
            d="m54.172 49.801h-8.3398c-10.539 0-19.109 8.5703-19.109 19.109v3.3789c0 4.6484 3.7812 8.4414 8.4414 8.4414h29.68c4.6484 0 8.4414-3.7812 8.4414-8.4414v-3.3789c-0.015625-10.539-8.5859-19.109-19.113-19.109zm15.098 22.488c0 2.4492-1.9883 4.4414-4.4414 4.4414h-29.668c-2.4492 0-4.4414-1.9883-4.4414-4.4414v-3.3789c0-8.3281 6.7812-15.109 15.109-15.109h8.3398c8.3281 0 15.109 6.7812 15.109 15.109l0.003906 3.3789z" />
        <path
            d="m50 46.711c7.5703 0 13.719-6.1484 13.719-13.719 0-7.5703-6.1484-13.723-13.719-13.723s-13.719 6.1484-13.719 13.719c0 7.5703 6.1484 13.723 13.719 13.723zm0-23.441c5.3594 0 9.7188 4.3594 9.7188 9.7188s-4.3594 9.7188-9.7188 9.7188-9.7188-4.3594-9.7188-9.7188 4.3594-9.7188 9.7188-9.7188z" />
    </g>
</svg>