<svg xmlns="http://www.w3.org/2000/svg" version="1.1" x="0px" y="0px" viewBox="0 0 100 125" style="enable-background:new 0 0 100 100;" xml:space="preserve"><g><path d="M51.1033287,73.8530807c2.2609406,1.1452484,4.3679085-1.2158661,4.2199821-3.6283722   c-0.0051765-0.2607574-0.2226372-0.4681244-0.4821663-0.4617691c-0.260704,0.0055313-0.4675064,0.2215576-0.4617691,0.4822617   c0.1004791,1.6949539-1.2117615,3.5237961-2.8063354,2.7885056c-0.6496658-0.3722534-1.0032196-1.2634125-0.995636-2.5093536   c0.0017433-0.2617264-0.2105942-0.4752426-0.4723244-0.47509c-0.2593765,0-0.4705849,0.209465-0.4721222,0.4693527   C49.6198425,72.6790771,50.5487099,73.5351868,51.1033287,73.8530807z"/><path d="M76.9824982,54.2289658c6.4024811-6.6060524,3.5941925-18.571804-5.7632141-23.5607891   c-0.0165482-6.2934399-3.116127-16.4507465-10.0554924-18.7061539C49.341713,8.2722139,38.7575798,9.7917213,29.7056122,16.4783726   c-6.2984085,4.6509075-3.4503651,18.8574657-2.9592857,21.0716763c-3.7127113,3.3852921-5.9898968,6.9993668-6.7643299,10.7330856   c-1.1439724,5.6928635-0.0729141,9.7601013,4.4787922,11.4110374c-1.904213,3.3911819,1.8656311,21.2823753,7.5492668,16.171032   c2.2469063,4.8035965,8.4317665,14.3548431,19.4262276,14.130928c12.5709953-0.1497726,19.9554787-7.0442505,22.3644447-19.008522   C79.7636261,75.2545319,80.6850662,55.719883,76.9824982,54.2289658z M30.2659683,17.2381516   c9.0526352-6.7842112,19.9220695-7.7890682,30.6021729-4.3779526c8.0151901,3.0641212,9.2051697,14.1561394,9.381485,17.2643776   c-6.3689613-3.2536564-14.2798271-4.6569004-21.2920036-3.8093987c-6.7369194,1.3349419-13.9605064,4.9231911-19.499651,8.9912987   c0,0,0,0-0.0021,0c-0.6496658,0.4854431-1.2776566,0.9945107-1.895195,1.5174065   C26.9184399,33.5917473,24.8742409,21.2216129,30.2659683,17.2381516z M29.1851215,75.548233   c-1.4229717-0.9696045-2.8795052-3.981308-3.7085609-7.6730652c-0.8337688-3.6832428-1.4144669-10.9645309,2.8060799-8.5000153   c0.1848717,2.4466858,0.2213554,6.1303482,1.895195,11.7908783c0.3890095,1.2714539,0.8590298,2.5385513,1.3998623,3.7567749   C30.5472202,76.2345352,29.7244682,75.9155197,29.1851215,75.548233z M73.4165878,67.4784775   c-1.379982,13.1363678-9.0369034,21.685318-21.9929123,21.5732574   C38.234684,88.8326874,32.6901093,76.7033234,30.6243362,69.2589951c-0.794775-4.2439651-0.3290596-8.5370102,0.0469875-12.7963448   c0.7998486,0.5498009,1.6643085,0.2236595,1.5210934-0.3763046c-0.2623444-1.0954971-0.7870369-3.8512115,0-2.1407318   c0.7870407,1.7105255,2.6213646,2.1407318,2.6213646,2.1407318s-1.1059532-0.3323364-1.6957207-4.4878616   c-0.170166-1.1973114,0.1554604-2.3882217,0.4399414-3.2850647c2.8159676-2.6551285,6.5990829-4.2583084,10.4066391-5.2289391   c0.0042,0,0.0063019-0.0021019,0.0105019-0.0021019c2.6593323-0.6724167,5.3908043-1.0776176,8.1276627-1.2740173   c0.1531029,0.3034401,0.3418694,0.5819244,0.5574837,0.829567c0.3551407,0.407814,1.4648361,0.8755798,1.92799,1.114048   c0.2182808,0.1200027,0.4332809-0.2068024,0.2304726-0.3572922l-0.0027657-0.0009727   c-0.5583572-0.4385071-0.9723701-1.0358086-1.1736412-1.665081c4.396553-0.123127,9.0467949,0.4677658,12.8304176,2.8255501   c1.1197891,1.4806175,1.2336426,3.1036797,0.4857559,4.7447777c0.7555771,0.2959099,1.7000198-0.0210075,2.1218796-0.7135582   c1.8112106,1.3662491,1.350975,5.4936905,1.1157913,6.6797333c0.5918655-0.1825676,0.8213654-2.5326157,1.1004639-3.4329948   C72.6635742,53.4323463,74.254097,61.8670311,73.4165878,67.4784775z M73.6853409,53.0137711   c-0.0020981-0.0042-0.0042038-0.0084038-0.0042038-0.0126038c-0.225914-0.8810654-0.5188522-1.7393265-0.8898773-2.5667915   c-0.2399521-0.5438042-0.5137253-1.0693703-0.8143463-1.5824814c-0.0020981-0.0021019-0.0020981-0.0041504-0.0042038-0.0063019   c-5.5257645-9.2669716-18.1007576-8.9596863-27.4141006-6.8776741c-0.0042,0-0.0084038,0.0021515-0.0126038,0.0021515   c-0.1719093,0.042942-0.3474045,0.0827026-0.5183907,0.1237984c-0.0042038,0.0020981-0.0063019,0.0020981-0.0105057,0.0042   c-1.0136681,0.2502022-2.0172958,0.5417023-3.0033493,0.8814735c-0.0021019,0-0.0021019,0.0021019-0.0042038,0.0021019   c-0.1112404,0.0356598-0.2203293,0.0734749-0.3294678,0.1133385c-0.0063019,0.0042038-0.0147057,0.0063057-0.0210075,0.0084038   c-0.0021019,0.0021019-0.0021019,0.0021019-0.0042038,0.0021019c-1.0744934,0.3843994-2.1283875,0.8263893-3.1439514,1.3452911   h-0.0021019c-5.4595184,2.6421165-9.4062901,7.8807373-9.289156,13.8267212   c-1.7881565-0.8143463-2.7913742-0.0923843-3.2950592,0.5687599c-0.9570503-0.2980614-1.9329586-0.8017464-2.7199955-1.6433525   c-1.6895199-1.8091125-2.1260815-4.7453423-1.2991276-8.7266502C23.7491245,35.7695313,44.5547676,26.480835,53.3795395,27.007679   c5.9025841,0.1477737,11.9527893,1.4457226,17.1408386,4.3446484c5.5868988,3.1817684,8.6133575,7.6290455,8.9953003,13.2222996   c-0.083931,5.3518639-1.9497147,8.021492-3.5762634,9.3332214c-0.6023712-0.0168076-1.2509079,0.2308846-1.9350586,0.7408714   C73.9455872,54.2184639,73.848999,53.6602097,73.6853409,53.0137711z M78.2270584,62.8926926   c-0.2447739,4.3086777-1.6162491,9.8125153-4.2143478,6.9952164c0.8546753-4.6544418,0.7689514-9.4356499,0.1049347-14.112175   C77.5090866,52.6959839,78.396347,58.1656952,78.2270584,62.8926926z"/><path d="M55.9134865,79.974968c-1.5777664-1.3045044-6.9769249-1.1762009-7.4730759,1.2938995   c-0.0880814,0.6118011,0.8436584,0.7456894,0.9345589,0.1369095c0.6584778-1.7327652,5.1328125-1.486763,5.9471092-0.6943436   c0.2711601,0.2176666,0.2799721,0.4095078,0.2574272,0.5521545c-0.0471382,0.2835617,0.1796989,0.5487213,0.4670982,0.5460129   C56.9392509,81.6702271,56.4754791,80.3564453,55.9134865,79.974968z"/><path d="M45.9360275,65.1876068c-0.0473442,1.4133911-0.629631,2.0629044-2.0100212,2.2422409   c-0.5775719,0.0752182-1.1973648-0.2545547-1.7493172-0.9274368c-0.2441025-0.2971878-0.4656639-0.6507416-0.6587334-1.0508194   c-0.1133423-0.2346725-0.3951607-0.3340759-0.6304512-0.2201233c-0.2348824,0.1133423-0.3334656,0.3955688-0.2201233,0.6304016   c0.5600471,1.2548523,1.8201294,2.5708923,3.0932236,2.5230865c1.9263992-0.0966415,3.0851288-1.1921387,3.1194611-3.1657867   C46.89851,64.6022491,45.9533463,64.5663834,45.9360275,65.1876068z"/><path d="M63.2682991,62.7584457c-0.2354965-0.1137505-0.5173111-0.0143471-0.6304512,0.2201271   c-0.1928635,0.3998718-0.4144249,0.7532196-0.6587334,1.0508156c-0.5521584,0.6730881-1.1731796,1.0016327-1.7493172,0.9276428   c-1.3803902-0.1793365-1.962677-0.8290558-2.0100212-2.2424469c-0.0270042-0.619381-0.9600258-0.5844383-0.9440384,0.0315628   c0.0344353,1.9740524,1.1930084,3.0689392,3.1194611,3.1659851c1.2727394,0.0482178,2.533844-1.2689972,3.0932274-2.5232353   C63.6017685,63.1538086,63.5031815,62.871582,63.2682991,62.7584457z"/><path d="M44.8336105,53.7229691c0.0760422-0.226017-0.2563515-0.3855515-0.3857307-0.1846657   c-1.5890884,2.6934547-7.1614876,2.4771233-7.6990395,5.1238976c-0.0466805,0.2549438,0.3469925,0.3443298,0.4174995,0.0947418   c0.2794609-0.6734161,1.0055237-0.9459305,1.6609268-1.1983871C41.0215454,56.7797127,43.984623,56.2439537,44.8336105,53.7229691z   "/><path d="M59.673645,52.6541672c-0.1273804-0.2046242-0.4616165-0.0488052-0.3878822,0.1810799   c1.1736412,3.6239624,6.6377678,3.009655,7.6672173,5.034153c0.0715332,0.2485886,0.4609528,0.1615829,0.4176025-0.0948982   C66.8228378,55.1203232,61.2749825,55.3522072,59.673645,52.6541672z"/></g></svg>