<svg xmlns="http://www.w3.org/2000/svg" version="1.1" viewBox="-5.0 -10.0 110.0 135.0">
 <path d="m50 34.375c-4.1445 0-8.1172 1.6445-11.047 4.5781-2.9336 2.9297-4.5781 6.9023-4.5781 11.047s1.6445 8.1172 4.5781 11.047c2.9297 2.9336 6.9023 4.5781 11.047 4.5781s8.1172-1.6445 11.047-4.5781c2.9336-2.9297 4.5781-6.9023 4.5781-11.047s-1.6445-8.1172-4.5781-11.047c-2.9297-2.9336-6.9023-4.5781-11.047-4.5781zm0 25c-3.793 0-7.2109-2.2852-8.6602-5.7891-1.4531-3.5-0.64844-7.5352 2.0312-10.215 2.6797-2.6797 6.7148-3.4844 10.215-2.0312 3.5039 1.4492 5.7891 4.8672 5.7891 8.6602 0 5.1758-4.1992 9.375-9.375 9.375zm32.293-34.082-29.168-14.875c-1.875-0.875-4.043-0.875-5.918 0l-29.168 14.75h0.003907c-2.5664 1.2266-4.1875 3.8242-4.168 6.6641v36.25c-0.007812 2.8203 1.6172 5.3867 4.168 6.5859l29.168 14.875h-0.003907c0.91797 0.41406 1.9141 0.625 2.918 0.625 1.0898 0 2.168-0.23047 3.168-0.66797l29.168-14.75h-0.003907c2.5664-1.2266 4.1875-3.8242 4.168-6.668v-36.207c-0.019531-2.8555-1.7188-5.4336-4.332-6.582zm-2.082 42.832h-0.003907c-0.019531 0.46484-0.3125 0.875-0.75 1.043l-29.168 14.707h0.003907c-0.23047 0.078125-0.48047 0.078125-0.71094 0l-29.168-14.875h0.003907c-0.38281-0.16797-0.62891-0.54297-0.625-0.95703v-36.168c0.019531-0.46484 0.3125-0.875 0.75-1.043l29.168-14.75h-0.003907c0.21875-0.058593 0.44922-0.058593 0.66797 0l29.168 14.875c0.37891 0.16797 0.625 0.54297 0.625 0.96094z"/>
</svg>