<svg xmlns="http://www.w3.org/2000/svg" version="1.1" viewBox="-5.0 -10.0 110.0 135.0">
 <path d="m94.414 5.5859c-0.51953-0.52344-1.2891-0.71094-1.9961-0.5l-86 26.176c-0.82422 0.25-1.3945 1-1.418 1.8633-0.023438 0.85938 0.50781 1.6406 1.3203 1.9336l43.055 15.574 15.574 43.055c0.28516 0.79297 1.0391 1.3203 1.8789 1.3203h0.050781c0.85938-0.023437 1.6094-0.59375 1.8633-1.418l26.172-86.008c0.21484-0.70703 0.023438-1.4766-0.5-1.9961zm-48.078 39.688 5.0781-5.0781c0.78125-0.78125 0.78125-2.0469 0-2.8281s-2.0469-0.78125-2.8281 0l-6.4023 6.4023-28.852-10.434 72.598-22.094-35.508 35.512-4.0859-1.4766zm20.328 41.395-10.434-28.852 6.4023-6.4023c0.78125-0.78125 0.78125-2.0469 0-2.8281s-2.0469-0.78125-2.8281 0l-5.0781 5.0781-1.4766-4.0859 35.508-35.508z"/>
</svg>